<svg xmlns="http://www.w3.org/2000/svg" viewBox="0 0 750 500"><g id="freepik--Floor--inject-103"><path d="M725.09,443.78c0,.06-156.75.11-350.07.11s-350.11-.05-350.11-.11,156.72-.1,350.11-.1S725.09,443.73,725.09,443.78Z" style="fill:#263238"></path></g><g id="freepik--bagpack-1--inject-103"><path d="M188.52,368.73a22.17,22.17,0,0,1,23.3,11.16c2.93,5.63,3.3,12.38,6.57,17.83,2.87,4.78,7.7,8.07,11.05,12.53,5.58,7.41,6.48,17,6.24,26.43-.1,4.18-6.75,7.15-10.93,7.1-10.29-.1-25.75.06-36.87,0-3.89,0-11.63,1.07-14-1.71-2.94-3.51-3.09-4.84-4.12-9.38A88.46,88.46,0,0,1,171.05,389c1.63-5.79,2.85-12.74,7.27-17.34,3.25-3.39,8.7-5.1,12.76-2.76" style="fill:#16A3B2"></path><g style="opacity:0.30000000000000004"><path d="M172,438.21a8.82,8.82,0,0,0,5.43,4.42,24.32,24.32,0,0,0,7.12.89c5.49.11,11.56-.21,15.54-4,3-2.91,4.18-7.3,4.59-11.5,1.62-16.47-5.67-32.36-8.33-48.69-.52-3.16-1-6.59-3.17-8.91a9.13,9.13,0,0,0-8.51-2.27,15.78,15.78,0,0,0-7.76,4.7,32.4,32.4,0,0,0-7.71,14.47,70.16,70.16,0,0,0-1.87,16.42,170.28,170.28,0,0,0,1.84,28.36"></path></g><path d="M197.94,369a3.8,3.8,0,0,1,.55.58,17.08,17.08,0,0,1,1.39,1.83,25,25,0,0,1,3.29,7.78c1.67,6.94,3.7,16.56,6,27.17,1.15,5.31,2.23,10.37,3.23,15,.49,2.3,1,4.49,1.3,6.57a27.14,27.14,0,0,1,.35,5.85,14.34,14.34,0,0,1-2.78,7.92,9.23,9.23,0,0,1-1.62,1.64,4.12,4.12,0,0,1-.48.35l-.18.11a14.55,14.55,0,0,0,2.12-2.22,14.36,14.36,0,0,0,2.57-7.82,27.17,27.17,0,0,0-.4-5.76c-.34-2.06-.85-4.24-1.35-6.54-1-4.6-2.11-9.66-3.27-15-2.33-10.61-4.3-20.26-5.88-27.19a26.28,26.28,0,0,0-3.1-7.76c-.52-.84-1-1.46-1.3-1.88A4.27,4.27,0,0,1,197.94,369Z" style="fill:#263238"></path><path d="M233.76,418.84H220.89s3.86,24.46,3.86,24.94h0c7.56.3,9.23-1.88,11-5.62,1.14-2.47.07-10.11-.89-15A42,42,0,0,0,233.76,418.84Z" style="fill:#263238"></path><path d="M217.76,397.55a20.14,20.14,0,0,1-5.39.66,20.52,20.52,0,0,1-5.43-.27,46,46,0,0,1,5.41-.25A46.86,46.86,0,0,1,217.76,397.55Z" style="fill:#263238"></path></g><g id="freepik--Table--inject-103"><rect x="338.14" y="392.4" width="78.9" height="4.38" style="fill:#e0e0e0"></rect><path d="M336.76,443.78h0a2.67,2.67,0,0,0,2.66-2.66V244.5a2.67,2.67,0,0,0-2.66-2.66h0a2.66,2.66,0,0,0-2.66,2.66V441.12A2.66,2.66,0,0,0,336.76,443.78Z" style="fill:#e0e0e0"></path><path d="M417.85,443.83h0a2.66,2.66,0,0,0,2.66-2.66V242.26a2.66,2.66,0,0,0-2.66-2.66h0a2.66,2.66,0,0,0-2.66,2.66V441.17A2.66,2.66,0,0,0,417.85,443.83Z" style="fill:#e0e0e0"></path><rect x="325.65" y="248.95" width="107.6" height="41.26" rx="7.98" style="fill:#455a64"></rect><path d="M372.45,248.82s.08.19.22.58a5.76,5.76,0,0,1,.24,1.77,8.65,8.65,0,0,1-2.67,5.86c-2,2.05-5.22,3.25-8.82,3.85s-7.7.81-11.55,2.58a11.76,11.76,0,0,0-4.65,3.87,56,56,0,0,0-3,4.9,17.68,17.68,0,0,1-3.12,4.17,13.09,13.09,0,0,1-3.81,2.45,13.27,13.27,0,0,1-6.45,1,10,10,0,0,1-2.35-.49l.6.14a12.06,12.06,0,0,0,1.76.27,13.48,13.48,0,0,0,6.38-1,13.12,13.12,0,0,0,3.75-2.45,17.35,17.35,0,0,0,3.07-4.13,54.66,54.66,0,0,1,3-4.93,11.85,11.85,0,0,1,4.72-3.94c3.9-1.79,8-1.92,11.61-2.58s6.81-1.76,8.74-3.77a8.65,8.65,0,0,0,2.7-5.75A6.36,6.36,0,0,0,372.45,248.82Z" style="fill:#263238"></path><path d="M343.2,248.51a5.83,5.83,0,0,1,.5,1,8.41,8.41,0,0,1,.58,3,9.54,9.54,0,0,1-1.1,4.44,13.43,13.43,0,0,1-3.61,4.3,18,18,0,0,1-4.93,2.68,33.13,33.13,0,0,1-4.42,1.26c-1.27.27-2.31.45-3,.58l-.83.13a1.06,1.06,0,0,1-.29,0l.28-.07.82-.17c.72-.15,1.75-.35,3-.65a34.4,34.4,0,0,0,4.38-1.29,17.92,17.92,0,0,0,4.87-2.67,13.06,13.06,0,0,0,3.57-4.22,9.56,9.56,0,0,0,1.12-4.35,8.8,8.8,0,0,0-.5-3c-.13-.34-.24-.6-.31-.78A2.85,2.85,0,0,1,343.2,248.51Z" style="fill:#263238"></path><path d="M360.25,279.3a3.55,3.55,0,0,0,1,.12,3.21,3.21,0,0,0,2.34-1.35,3.4,3.4,0,0,0,.68-1.86,3.53,3.53,0,0,0-.78-2.21,5,5,0,0,0-5.25-1.69,9.43,9.43,0,0,0-5.5,4.22,6.48,6.48,0,0,0-1,3.74,5.68,5.68,0,0,0,1.75,3.68,7,7,0,0,0,3.86,1.93,10.38,10.38,0,0,0,4.55-.33,11.41,11.41,0,0,0,7.18-6,8.68,8.68,0,0,0-1.23-9.07,7.07,7.07,0,0,0-3.86-2.3,9.61,9.61,0,0,0-4.37.09,20.09,20.09,0,0,0-7.28,3.63,33.1,33.1,0,0,0-5.27,4.81,33.94,33.94,0,0,0-5.61,8.67,28.11,28.11,0,0,0-1,2.61l-.34.93a27.69,27.69,0,0,1,1.31-3.58,34.05,34.05,0,0,1,5.58-8.73,32.91,32.91,0,0,1,5.28-4.85,20.28,20.28,0,0,1,7.34-3.68,10,10,0,0,1,4.45-.1,7.25,7.25,0,0,1,4,2.37,8.86,8.86,0,0,1,1.27,9.29,11.58,11.58,0,0,1-7.32,6.14,10.43,10.43,0,0,1-4.63.34,7.25,7.25,0,0,1-4-2,5.85,5.85,0,0,1-1.79-3.8,6.68,6.68,0,0,1,1.06-3.84,9.63,9.63,0,0,1,5.62-4.28,5.16,5.16,0,0,1,5.37,1.76,3.6,3.6,0,0,1,.79,2.29,3.5,3.5,0,0,1-.71,1.91,3.24,3.24,0,0,1-2.41,1.34,2,2,0,0,1-.73-.08Z" style="fill:#263238"></path><path d="M396,249.13l-.55.06a12.92,12.92,0,0,0-1.57.18,20.07,20.07,0,0,0-5.54,1.68,21.31,21.31,0,0,0-6.88,5.07,20.32,20.32,0,0,0-4.75,9.27c-.86,3.65-1.09,7.24-1.63,10.45a26.48,26.48,0,0,1-2.56,8.24,13.53,13.53,0,0,1-3.67,4.51,9,9,0,0,1-1.32.87c-.32.18-.49.26-.49.26s.16-.11.47-.29a12.35,12.35,0,0,0,1.29-.9,13.78,13.78,0,0,0,3.58-4.51,26.14,26.14,0,0,0,2.51-8.21c.52-3.21.75-6.79,1.61-10.47a20.41,20.41,0,0,1,4.82-9.35,21.26,21.26,0,0,1,7-5.07,19,19,0,0,1,5.59-1.63,13.82,13.82,0,0,1,1.58-.15Z" style="fill:#263238"></path><path d="M427.09,248.42l-.47.57a11.57,11.57,0,0,1-1.53,1.49,18.67,18.67,0,0,1-7,3.51,37.1,37.1,0,0,1-5.31,1.08c-1.93.24-4,.39-6.19.57-4.32.36-9.25.78-13.71,3.21a27.56,27.56,0,0,0-10,9.82,48.06,48.06,0,0,0-4.76,10.55c-1,3.14-1.69,5.74-2.17,7.53-.22.85-.4,1.54-.54,2.06s-.2.71-.2.71.05-.25.16-.72.29-1.21.5-2.07c.45-1.8,1.09-4.4,2.11-7.55a47.71,47.71,0,0,1,4.73-10.61,27.79,27.79,0,0,1,10.08-9.91,24.12,24.12,0,0,1,7-2.39,60.77,60.77,0,0,1,6.82-.82c2.18-.17,4.25-.32,6.18-.55a36.94,36.94,0,0,0,5.29-1.05,19,19,0,0,0,7-3.43,13.88,13.88,0,0,0,1.55-1.45C426.91,248.6,427.09,248.42,427.09,248.42Z" style="fill:#263238"></path><path d="M395.63,283s.31-.67,1-1.88a26.41,26.41,0,0,1,3.65-4.78,27.18,27.18,0,0,1,7.53-5.54A26.42,26.42,0,0,1,419.58,268h.16l-.08.13a49.25,49.25,0,0,1-17.9,17.19c-1.34.73-2.71,1.45-4.14,2.06a14,14,0,0,1-4.52,1.38,5.09,5.09,0,0,1-3.21-.76,3.42,3.42,0,0,1-1.61-2.79,6.46,6.46,0,0,1,.83-3.12,28.19,28.19,0,0,1,1.69-2.68,37.18,37.18,0,0,1,18-13.65c3.23-1.12,6.35-1.78,9.12-2.63a26.07,26.07,0,0,0,7.1-3.16,15.54,15.54,0,0,0,4.22-4.06,11,11,0,0,0,1.55-3.36,8.25,8.25,0,0,0,.2-.95,2.88,2.88,0,0,1,.06-.33s0,.11,0,.33a9.7,9.7,0,0,1-.18,1,10.57,10.57,0,0,1-1.53,3.39,15.46,15.46,0,0,1-4.21,4.12,26.13,26.13,0,0,1-7.13,3.2c-2.77.87-5.89,1.53-9.1,2.65a37.49,37.49,0,0,0-9.56,5.07,37.12,37.12,0,0,0-8.36,8.54,24.26,24.26,0,0,0-1.67,2.66,6.26,6.26,0,0,0-.82,3,3.26,3.26,0,0,0,1.52,2.63,5,5,0,0,0,3.09.73,14.14,14.14,0,0,0,4.44-1.37c1.43-.61,2.8-1.32,4.13-2.05A49,49,0,0,0,419.51,268l.07.13a26.31,26.31,0,0,0-11.71,2.8,27.2,27.2,0,0,0-7.53,5.48,26.36,26.36,0,0,0-3.67,4.74c-.37.59-.6,1.07-.78,1.38Z" style="fill:#263238"></path><path d="M433.73,263a3.39,3.39,0,0,1-.12.39c-.12.3-.25.66-.41,1.08s-.4,1-.7,1.7-.61,1.4-1.05,2.19-.88,1.67-1.44,2.57-1.18,1.85-1.85,2.83a44.53,44.53,0,0,1-11,10.84c-1,.65-1.93,1.29-2.86,1.81s-1.78,1-2.59,1.4-1.55.72-2.21,1-1.23.51-1.7.68l-1.1.39-.38.12a2.47,2.47,0,0,1,.37-.16l1.08-.43c.47-.17,1-.4,1.69-.71s1.4-.6,2.18-1,1.68-.86,2.58-1.41,1.85-1.16,2.83-1.82a50.29,50.29,0,0,0,5.94-4.93,50.82,50.82,0,0,0,5-5.86c.67-1,1.33-1.89,1.86-2.81s1-1.75,1.46-2.55.76-1.53,1.07-2.17a18.31,18.31,0,0,0,.73-1.68c.18-.41.32-.77.45-1.07Z" style="fill:#263238"></path><path d="M276.62,443.78h0a2.66,2.66,0,0,0,2.66-2.66V306.94H274V441.12A2.66,2.66,0,0,0,276.62,443.78Z" style="fill:#e0e0e0"></path><path d="M478.64,443.78h0a2.66,2.66,0,0,0,2.66-2.66V306.94H476V441.12A2.66,2.66,0,0,0,478.64,443.78Z" style="fill:#e0e0e0"></path><rect x="267.38" y="295.06" width="219.69" height="12.55" style="fill:#455a64"></rect><rect x="273.61" y="311.66" width="209.04" height="39.63" style="fill:#455a64"></rect><path d="M326.57,312a8,8,0,0,1-.83,2.4,12.86,12.86,0,0,1-4.73,5,27.58,27.58,0,0,1-9.7,3.29c-3.79.71-8.07,1.2-12.14,3.06a26.65,26.65,0,0,0-9.88,7.52c-1.22,1.5-2.26,3-3.31,4.38a22.83,22.83,0,0,1-3.24,3.53,10.82,10.82,0,0,1-6.29,2.71,7.89,7.89,0,0,1-1.88-.18c-.41-.12-.63-.2-.63-.2l.64.16a8.22,8.22,0,0,0,1.87.14,10.83,10.83,0,0,0,6.19-2.74,22.59,22.59,0,0,0,3.2-3.52c1.05-1.36,2.08-2.89,3.3-4.4a26.65,26.65,0,0,1,9.94-7.59c4.11-1.87,8.41-2.36,12.19-3.06a27.69,27.69,0,0,0,9.66-3.22,12.93,12.93,0,0,0,4.74-4.9,11.63,11.63,0,0,0,.72-1.74C326.5,312.18,326.57,312,326.57,312Z" style="fill:#263238"></path><path d="M339.82,350.89l-.29-.63c-.17-.43-.47-1-.87-1.79a24.39,24.39,0,0,0-4.43-5.76,27.19,27.19,0,0,0-9.09-5.73,30.42,30.42,0,0,0-13-1.74,37.29,37.29,0,0,0-12.74,3.41,46.93,46.93,0,0,0-9.18,5.7,59.53,59.53,0,0,0-5.44,4.87c-.6.62-1.07,1.1-1.38,1.44l-.48.5s.61-.74,1.8-2a57,57,0,0,1,5.4-4.94,46.38,46.38,0,0,1,9.2-5.75A37.13,37.13,0,0,1,312.1,335a30.16,30.16,0,0,1,13.1,1.77,27,27,0,0,1,9.13,5.79,23.9,23.9,0,0,1,4.4,5.83c.39.78.68,1.38.84,1.81S339.82,350.89,339.82,350.89Z" style="fill:#263238"></path><path d="M354.11,334.43l-.31-.39a6.65,6.65,0,0,0-1.06-1,14.72,14.72,0,0,0-2-1.27,21.8,21.8,0,0,1-2.8-1.67,6.13,6.13,0,0,1-2.3-3.31,3.14,3.14,0,0,1,.36-2.28,3.54,3.54,0,0,1,2-1.46,4.86,4.86,0,0,1,2.7,0,10.74,10.74,0,0,1,2.65,1.13,37.2,37.2,0,0,1,5.16,3.52,39,39,0,0,1,4.93,4.8,31.13,31.13,0,0,1,2.24,2.91A7.44,7.44,0,0,1,367,339a3.8,3.8,0,0,1-.45,1.92,4.11,4.11,0,0,1-1.4,1.44,9,9,0,0,1-3.88,1.2,24.63,24.63,0,0,1-8.43-.54,25.84,25.84,0,0,1-14.87-9.9c-.44-.66-.89-1.32-1.29-2a17.24,17.24,0,0,1-1-2.18,9.72,9.72,0,0,1-.64-4.81,6.5,6.5,0,0,1,2.5-4.18,10.87,10.87,0,0,1,4.57-2,21.48,21.48,0,0,1,9.84.62,51.05,51.05,0,0,1,8.91,3.64c5.59,2.87,10.91,6,16.6,7.21a21.51,21.51,0,0,0,8.37.21c2.7-.45,5.29-1.16,7.87-1.36a15.63,15.63,0,0,1,7.34,1.13,23.72,23.72,0,0,1,5.87,3.57,73.65,73.65,0,0,1,8.34,8.38,53.16,53.16,0,0,0,6.43,6.17,23.06,23.06,0,0,0,4.81,2.9c.59.27,1.05.43,1.36.54l.47.17-.47-.15c-.32-.11-.79-.26-1.38-.52a22.67,22.67,0,0,1-4.84-2.88,51.37,51.37,0,0,1-6.46-6.15,75.44,75.44,0,0,0-8.35-8.35A23.91,23.91,0,0,0,401,329.5a15.46,15.46,0,0,0-7.26-1.11c-2.57.21-5.15.92-7.86,1.37a21.67,21.67,0,0,1-8.44-.2c-5.73-1.22-11.07-4.35-16.65-7.22a50.44,50.44,0,0,0-8.87-3.62,21.4,21.4,0,0,0-9.75-.61,10.62,10.62,0,0,0-4.48,1.95,6.28,6.28,0,0,0-2.42,4.05,9.41,9.41,0,0,0,.62,4.7,16.31,16.31,0,0,0,1,2.16c.39.69.84,1.33,1.27,2a25.69,25.69,0,0,0,14.75,9.84,24.82,24.82,0,0,0,8.37.54,9,9,0,0,0,3.81-1.17,3.88,3.88,0,0,0,1.33-1.37,3.56,3.56,0,0,0,.43-1.83,7.25,7.25,0,0,0-1.28-3.48,30.67,30.67,0,0,0-2.22-2.89,37.37,37.37,0,0,0-4.9-4.79,38.68,38.68,0,0,0-5.14-3.53c-1.67-1-3.56-1.65-5.25-1.12a3.38,3.38,0,0,0-2,1.41,3,3,0,0,0-.36,2.2A6.1,6.1,0,0,0,348,330a23.64,23.64,0,0,0,2.78,1.68,13.91,13.91,0,0,1,2,1.28,7,7,0,0,1,1.06,1C354,334.29,354.11,334.43,354.11,334.43Z" style="fill:#263238"></path><path d="M438.81,351.08l-.84,0a17.25,17.25,0,0,1-2.4-.15,16.36,16.36,0,0,1-8.05-3.47,119.4,119.4,0,0,1-20.18-21,26.61,26.61,0,0,0-5.85-5.81,11.72,11.72,0,0,0-3.55-1.62,12.51,12.51,0,0,0-3.74-.33c-2.45.13-4.77.62-7,.63a18.12,18.12,0,0,1-6-1.06,31,31,0,0,1-7.76-4.22c-1.69-1.23-2.56-2-2.56-2s.24.17.67.51,1.09.82,1.94,1.42a31.62,31.62,0,0,0,7.76,4.14,17.63,17.63,0,0,0,6,1c2.19,0,4.5-.5,7-.64a12.64,12.64,0,0,1,3.8.33,11.85,11.85,0,0,1,3.61,1.64,26.85,26.85,0,0,1,5.91,5.85,120.16,120.16,0,0,0,20.1,21A16.5,16.5,0,0,0,438,351.07Z" style="fill:#263238"></path><path d="M482.65,319.88l-1-.17a15.47,15.47,0,0,0-3-.12,19.55,19.55,0,0,0-10.1,3.73,27.06,27.06,0,0,0-5.43,5.18,50.22,50.22,0,0,0-4.74,7.23c-.74,1.33-1.46,2.72-2.17,4.14a34.91,34.91,0,0,1-2.41,4.27,10.27,10.27,0,0,1-3.74,3.42A10.82,10.82,0,0,1,445,348.7a17.69,17.69,0,0,1-9.6-3.43,50,50,0,0,1-7.36-6.15,55,55,0,0,1-9.55-13.07,52.55,52.55,0,0,1-4.06-10.14c-.36-1.25-.59-2.22-.73-2.89s-.21-1-.21-1,.09.34.25,1,.39,1.64.76,2.87a54.18,54.18,0,0,0,4.12,10.1,54.84,54.84,0,0,0,9.56,13,50,50,0,0,0,7.33,6.12,17.53,17.53,0,0,0,9.49,3.4,10.78,10.78,0,0,0,5-1.12,10.26,10.26,0,0,0,3.66-3.35,33.88,33.88,0,0,0,2.4-4.25c.72-1.42,1.44-2.81,2.18-4.15a50.18,50.18,0,0,1,4.78-7.24,27.4,27.4,0,0,1,5.48-5.2,19.48,19.48,0,0,1,10.18-3.68,15,15,0,0,1,3,.16Z" style="fill:#263238"></path><path d="M482.64,330.3s-.08.07-.24.19-.41.3-.71.53a15.05,15.05,0,0,0-2.28,2.31,27.25,27.25,0,0,0-2.61,4c-.88,1.6-1.73,3.41-2.76,5.24a20.89,20.89,0,0,1-3.51,4.79,15,15,0,0,1-4,2.76,12.5,12.5,0,0,1-3.11,1,7.39,7.39,0,0,1-1.19.11s.42,0,1.18-.19a12.9,12.9,0,0,0,3.05-1.07,15.22,15.22,0,0,0,3.91-2.77,21.16,21.16,0,0,0,3.46-4.75c1-1.83,1.88-3.64,2.77-5.23a25.48,25.48,0,0,1,2.67-4,13.7,13.7,0,0,1,2.34-2.28A8.67,8.67,0,0,1,482.64,330.3Z" style="fill:#263238"></path><path d="M450.34,312.18a3.12,3.12,0,0,0-1.57,1.71,5.14,5.14,0,0,0-.3,2.72c.13,1.08.53,2.27.82,3.62a25.33,25.33,0,0,1,.2,9.64,11,11,0,0,1-2,5.31,3.43,3.43,0,0,1-2.74,1.22,5.11,5.11,0,0,1-2.89-1.18,13.2,13.2,0,0,1-2.21-2.21c-.65-.8-1.26-1.6-1.82-2.42a35.59,35.59,0,0,1-2.9-4.93,7.11,7.11,0,0,1-.68-2.59,3.3,3.3,0,0,1,.82-2.38,3.7,3.7,0,0,1,4.25-.72,4.9,4.9,0,0,1,2.39,2.79,6.38,6.38,0,0,1,.28,2.78,8.5,8.5,0,0,1-.39,1.74,6.07,6.07,0,0,1-.22.57l.18-.59a9.55,9.55,0,0,0,.35-1.72,6.46,6.46,0,0,0-.31-2.75,4.8,4.8,0,0,0-2.35-2.69,3.55,3.55,0,0,0-4,.71,3.14,3.14,0,0,0-.77,2.25,6.82,6.82,0,0,0,.68,2.52,35,35,0,0,0,2.88,4.89c.57.81,1.18,1.62,1.82,2.41a12.79,12.79,0,0,0,2.17,2.18,5.06,5.06,0,0,0,2.77,1.14,3.29,3.29,0,0,0,2.59-1.15c1.29-1.49,1.65-3.46,2-5.22a25.25,25.25,0,0,0-.16-9.57c-.28-1.34-.67-2.54-.78-3.63a5.15,5.15,0,0,1,.34-2.78,3.32,3.32,0,0,1,1.09-1.39A1.91,1.91,0,0,1,450.34,312.18Z" style="fill:#263238"></path><path d="M291.4,312a28.07,28.07,0,0,1-.76,4.71,37.07,37.07,0,0,1-4.39,10.63,35.78,35.78,0,0,1-3.76,5.11,13,13,0,0,1-3.94,3.36,5,5,0,0,1-3.43.41,3,3,0,0,1-1.16-.54,5.26,5.26,0,0,0,1.18.47,5.08,5.08,0,0,0,3.35-.47,13.1,13.1,0,0,0,3.85-3.35,37.61,37.61,0,0,0,8.15-15.65c.36-1.43.57-2.6.7-3.42.06-.35.1-.66.14-.93A1.77,1.77,0,0,1,291.4,312Z" style="fill:#263238"></path></g><g id="freepik--character-2--inject-103"><rect x="570.32" y="392.34" width="78.9" height="4.38" style="fill:#e0e0e0"></rect><path d="M568.94,443.73h0a2.66,2.66,0,0,0,2.66-2.66V244.45a2.66,2.66,0,0,0-2.66-2.66h0a2.66,2.66,0,0,0-2.66,2.66V441.07A2.66,2.66,0,0,0,568.94,443.73Z" style="fill:#e0e0e0"></path><path d="M650,443.73h0a2.66,2.66,0,0,0,2.66-2.66V242.2a2.66,2.66,0,0,0-2.66-2.66h0a2.66,2.66,0,0,0-2.65,2.66V441.07A2.66,2.66,0,0,0,650,443.73Z" style="fill:#e0e0e0"></path><rect x="557.83" y="248.89" width="107.6" height="41.26" rx="7.98" style="fill:#455a64"></rect><path d="M604.63,248.76s.09.2.22.58a6,6,0,0,1,.25,1.77,8.67,8.67,0,0,1-2.68,5.86c-1.95,2-5.22,3.26-8.81,3.86s-7.71.8-11.56,2.57a11.74,11.74,0,0,0-4.64,3.87,53.79,53.79,0,0,0-3,4.91,17.65,17.65,0,0,1-3.13,4.16,12.76,12.76,0,0,1-3.81,2.45,13.22,13.22,0,0,1-6.44,1,10,10,0,0,1-2.36-.49l.61.14a11.88,11.88,0,0,0,1.75.27,13.46,13.46,0,0,0,6.38-1,13,13,0,0,0,3.75-2.44,17.65,17.65,0,0,0,3.08-4.14,54.49,54.49,0,0,1,3-4.93,12,12,0,0,1,4.73-3.93c3.9-1.8,8-1.93,11.61-2.58s6.8-1.77,8.74-3.78a8.61,8.61,0,0,0,2.7-5.75A6.54,6.54,0,0,0,604.63,248.76Z" style="fill:#263238"></path><path d="M575.39,248.46a5.37,5.37,0,0,1,.5,1,8.33,8.33,0,0,1,.57,3,9.48,9.48,0,0,1-1.1,4.44,13.18,13.18,0,0,1-3.6,4.3,17.66,17.66,0,0,1-4.94,2.68,33,33,0,0,1-4.41,1.26c-1.28.28-2.32.46-3,.58l-.83.13-.29,0a1.08,1.08,0,0,1,.28-.08l.83-.17c.71-.15,1.75-.35,3-.64a34.12,34.12,0,0,0,4.38-1.3,18.05,18.05,0,0,0,4.88-2.66,13.28,13.28,0,0,0,3.56-4.23,9.31,9.31,0,0,0,1.12-4.35,8.61,8.61,0,0,0-.5-3c-.12-.34-.23-.6-.31-.77A1.35,1.35,0,0,1,575.39,248.46Z" style="fill:#263238"></path><path d="M592.44,279.24a3,3,0,0,0,1,.12,3.24,3.24,0,0,0,2.35-1.35,3.37,3.37,0,0,0,.68-1.86,3.57,3.57,0,0,0-.78-2.21,5,5,0,0,0-5.25-1.69,9.49,9.49,0,0,0-5.51,4.22,6.63,6.63,0,0,0-1,3.74,5.73,5.73,0,0,0,1.75,3.68,7,7,0,0,0,3.86,1.93,10.22,10.22,0,0,0,4.55-.33,11.38,11.38,0,0,0,7.18-6,8.65,8.65,0,0,0-1.23-9.06,7.08,7.08,0,0,0-3.86-2.31,9.76,9.76,0,0,0-4.37.09,20,20,0,0,0-7.27,3.63,33.19,33.19,0,0,0-5.28,4.81,34.39,34.39,0,0,0-5.61,8.67c-.51,1.11-.84,2-1.05,2.61s-.33.93-.33.93a25.54,25.54,0,0,1,1.31-3.57,34,34,0,0,1,10.85-13.59A20.27,20.27,0,0,1,591.7,268a9.68,9.68,0,0,1,4.45-.1,7.29,7.29,0,0,1,4,2.36,8.88,8.88,0,0,1,1.26,9.29,11.64,11.64,0,0,1-7.31,6.15,10.47,10.47,0,0,1-4.64.33,7.21,7.21,0,0,1-4-2,5.84,5.84,0,0,1-1.8-3.81,6.64,6.64,0,0,1,1.07-3.83,9.5,9.5,0,0,1,5.61-4.28,5.15,5.15,0,0,1,5.38,1.76,3.69,3.69,0,0,1,.79,2.28,3.43,3.43,0,0,1-.72,1.91,3.27,3.27,0,0,1-2.41,1.35,2.13,2.13,0,0,1-.72-.09Z" style="fill:#263238"></path><path d="M628.15,249.07l-.55.06a15,15,0,0,0-1.57.18,19.88,19.88,0,0,0-5.54,1.68,21.34,21.34,0,0,0-6.89,5.07,20.32,20.32,0,0,0-4.75,9.27c-.86,3.65-1.09,7.24-1.63,10.45a26,26,0,0,1-2.56,8.25,13.7,13.7,0,0,1-3.66,4.5,9.53,9.53,0,0,1-1.33.88l-.49.25s.16-.11.47-.29a10.15,10.15,0,0,0,1.3-.9,13.8,13.8,0,0,0,3.58-4.51,26.32,26.32,0,0,0,2.5-8.21c.53-3.2.75-6.79,1.62-10.47a20.37,20.37,0,0,1,4.81-9.34,21.19,21.19,0,0,1,7-5.08,19.48,19.48,0,0,1,5.59-1.63,13.34,13.34,0,0,1,1.58-.14Z" style="fill:#263238"></path><path d="M658.74,249l-.47.57a10.87,10.87,0,0,1-1.52,1.47,16.67,16.67,0,0,1-7,3.2,81.25,81.25,0,0,1-11.42,1.39c-4.28.37-9.16.86-13.53,3.34A28,28,0,0,0,615,268.8a48.83,48.83,0,0,0-4.67,10.47c-1,3.11-1.67,5.68-2.14,7.45l-.54,2c-.12.46-.19.71-.19.71s0-.25.15-.72.29-1.2.5-2.05c.45-1.78,1.08-4.36,2.08-7.48a48.41,48.41,0,0,1,4.65-10.52,28,28,0,0,1,9.87-9.92,23.33,23.33,0,0,1,6.86-2.48,55.75,55.75,0,0,1,6.75-.87,81.2,81.2,0,0,0,11.41-1.35,16.8,16.8,0,0,0,7-3.11,13,13,0,0,0,1.54-1.43Z" style="fill:#263238"></path><path d="M627.81,283s.32-.68,1-1.89a26.41,26.41,0,0,1,3.65-4.78,27.38,27.38,0,0,1,7.54-5.53,26.42,26.42,0,0,1,11.78-2.85h.15l-.08.13A49.09,49.09,0,0,1,634,285.26c-1.34.73-2.71,1.44-4.15,2.05a14,14,0,0,1-4.51,1.39,5.13,5.13,0,0,1-3.22-.77,3.43,3.43,0,0,1-1.61-2.79,6.43,6.43,0,0,1,.84-3.11,25.26,25.26,0,0,1,1.69-2.68,37.13,37.13,0,0,1,18-13.66c3.23-1.11,6.34-1.77,9.11-2.63a25.83,25.83,0,0,0,7.11-3.15,15.36,15.36,0,0,0,4.21-4.07,10.74,10.74,0,0,0,1.55-3.36,7.84,7.84,0,0,0,.2-.95l.06-.32s0,.11,0,.32a5.82,5.82,0,0,1-.18,1,10.53,10.53,0,0,1-1.52,3.4A15.35,15.35,0,0,1,657.3,260a25.57,25.57,0,0,1-7.13,3.2c-2.77.87-5.88,1.54-9.1,2.66a36.87,36.87,0,0,0-9.56,5.07,37.43,37.43,0,0,0-8.35,8.53,27.08,27.08,0,0,0-1.68,2.66,6.28,6.28,0,0,0-.81,3,3.21,3.21,0,0,0,1.51,2.63,5,5,0,0,0,3.09.73,13.94,13.94,0,0,0,4.45-1.37c1.43-.61,2.79-1.32,4.13-2a49,49,0,0,0,7.32-5A48.35,48.35,0,0,0,651.69,268l.08.13a26.35,26.35,0,0,0-11.72,2.81,27.34,27.34,0,0,0-7.53,5.47,26.84,26.84,0,0,0-3.67,4.74c-.36.59-.59,1.07-.77,1.38S627.81,283,627.81,283Z" style="fill:#263238"></path><path d="M665.21,264a3.3,3.3,0,0,1-.12.37l-.39,1.05c-.17.46-.38,1-.68,1.65s-.58,1.37-1,2.13a41.14,41.14,0,0,1-3.18,5.26,42.89,42.89,0,0,1-4.9,5.69,42.49,42.49,0,0,1-11.2,7.74,39.62,39.62,0,0,1-3.81,1.6l-1.06.37a3.77,3.77,0,0,1-.38.12l.36-.16,1-.4c.91-.34,2.21-.9,3.78-1.66a46.6,46.6,0,0,0,5.29-3.06,45.85,45.85,0,0,0,5.83-4.7,45,45,0,0,0,4.89-5.66,43.15,43.15,0,0,0,3.2-5.2c.43-.76.72-1.49,1-2.12s.52-1.17.7-1.63.31-.74.43-1S665.21,264,665.21,264Z" style="fill:#263238"></path><path d="M553.24,313.47s14.25-46.55,15.09-50.27c1.2-5.27,7.89-29,14.28-31.41s17.34-6,17.34-6l5.11,1.18,5.41,5.79A17.61,17.61,0,0,0,630.19,237h0l3.89,1.5-7.83,73.15Z" style="fill:#16A3B2"></path><path d="M581.89,232.16s-11.06,3.81-11.06,13.72c0,7,.95,20.27,2.07,26,1.07,5.52,8.5,20.44,11.93,22.44s12,.05,12,.05,5.71-5.79,6.13-10.94,3.8-25.09,3.8-25.09l-15.69-7.73S596.16,231.56,581.89,232.16Z" style="fill:#16A3B2"></path><path d="M632.05,238.23l-5.58,35.85,14.49,21,17,.2s4.42-10.14,3.26-16.48-7.91-23.94-7.91-23.94L639,260.11l-.6-14.33a8.07,8.07,0,0,0-6.38-7.55Z" style="fill:#16A3B2"></path><path d="M583.27,274.62a4,4,0,0,1,.2-1c.16-.61.42-1.5.75-2.6.65-2.19,1.6-5.2,2.7-8.51s2.12-6.29,2.87-8.45l.92-2.55a5.23,5.23,0,0,1,.38-.92,19.93,19.93,0,0,1-1,3.59c-.67,2.18-1.63,5.18-2.73,8.49l-2.84,8.46-.9,2.56A3.18,3.18,0,0,1,583.27,274.62Z" style="fill:#263238"></path><path d="M570.87,248.76a.92.92,0,0,1,0,.31c0,.23,0,.53.07.9,0,.83.13,2,.23,3.48.22,3,.55,7.38,1.28,12.73a82.94,82.94,0,0,0,1.6,8.68c.36,1.54.87,3.1,1.39,4.71s1.12,3.24,1.8,4.89a37.45,37.45,0,0,0,2.4,4.89,20.24,20.24,0,0,0,3.47,4.45,10.24,10.24,0,0,0,5.05,2.67,14.35,14.35,0,0,0,5.94-.17,9,9,0,0,0,4.74-3.1,21.76,21.76,0,0,0,2.9-4.88,39.09,39.09,0,0,0,3-10.37c1.23-6.84,1.91-13.11,2.43-18.4l.09.18-11.91-6.62-3.22-1.83-.84-.48c-.18-.12-.28-.18-.27-.19l.3.14.86.44,3.27,1.74,12,6.47.1.06v.13c-.48,5.3-1.12,11.57-2.33,18.44a39.54,39.54,0,0,1-3,10.51,23.15,23.15,0,0,1-3,5,9.6,9.6,0,0,1-5,3.28,15,15,0,0,1-6.18.17,10.83,10.83,0,0,1-5.3-2.81,20.2,20.2,0,0,1-3.54-4.56,37.24,37.24,0,0,1-2.42-5c-.68-1.66-1.27-3.31-1.79-4.93s-1-3.19-1.38-4.75a83.83,83.83,0,0,1-1.55-8.73c-.69-5.37-1-9.75-1.11-12.77-.07-1.51-.12-2.69-.14-3.49,0-.37,0-.67,0-.9A1.43,1.43,0,0,1,570.87,248.76Z" style="fill:#263238"></path><path d="M592.26,247.9a17.44,17.44,0,0,0-5.85-9.45,11.55,11.55,0,0,1,5.85,9.45Z" style="fill:#263238"></path><path d="M633.06,248.25a3,3,0,0,1,0,.64c0,.47-.06,1.07-.1,1.82-.1,1.58-.27,3.86-.52,6.67-.49,5.64-1.3,13.4-2.27,22s-1.92,16.26-2.59,21.93c-.35,2.75-.63,5-.83,6.64-.1.74-.18,1.34-.25,1.8a2.66,2.66,0,0,1-.12.63,3.86,3.86,0,0,1,0-.64c0-.47.09-1.07.15-1.81.16-1.64.39-3.9.66-6.66.63-5.68,1.49-13.41,2.44-21.95s1.8-16.27,2.42-21.94c.29-2.76.52-5,.69-6.66.08-.74.14-1.34.19-1.81A4.2,4.2,0,0,1,633.06,248.25Z" style="fill:#263238"></path><path d="M652.44,255.25a5.86,5.86,0,0,1-1.07.51l-3,1.25L638,261.15l.16-.27c.21,1.64.43,3.37.65,5.17.72,5.7,1.33,10.86,1.75,14.6l.47,4.43a9,9,0,0,1,.1,1.63,10.28,10.28,0,0,1-.3-1.61c-.16-1.13-.38-2.61-.63-4.41-.52-3.72-1.19-8.88-1.9-14.58-.22-1.79-.44-3.53-.64-5.16l0-.2.18-.07,10.43-4,3.06-1.11A6,6,0,0,1,652.44,255.25Z" style="fill:#263238"></path><g style="opacity:0.30000000000000004"><path d="M584.37,264.78c-.84,2.09-1.85,6.09-.48,7.86,0,0,1.16-5.13,1.86-7.07,1.57-4.36,3.77-10.59,5.34-15C587.89,254.23,586.16,260.3,584.37,264.78Z"></path></g><g style="opacity:0.30000000000000004"><path d="M604.46,281c-2,5.25-3.86,13.13-9.14,15.32-6.27,2.6-12.55.11-16.35-7.68l-4.7-11.9c.87,3.44,0,0,.45,3.53.61,4.76,1.4,9.6,3.67,13.83s6.31,7.78,11.08,8.27,9.52-2.23,12.26-6.17S604.61,285.76,604.46,281Z"></path></g><g style="opacity:0.30000000000000004"><path d="M632.29,255.25c.09,1,1.37,29.24,1.37,29.24l-3.72-5.38L632.07,256"></path></g><path d="M601.79,205.19s-1.06-18.4,11.21-24.74c12-6.21,28.19-3.36,32.16,2.43,7.69,11.18-.33,24.46-.33,24.46l-40.75,1.81Z" style="fill:#263238"></path><path d="M646.11,201.46c0-.11,0-.21,0-.31A19.27,19.27,0,0,0,628,180.89c-.51,0-1,0-1.57,0-.85,0-1.69,0-2.49.1a19.2,19.2,0,0,0-17,17.87c-.54,7.54-1.19,17.6-1,20.61a40.74,40.74,0,0,1,0,6.77l-.7,11.57a12.77,12.77,0,0,0,11.36,13.46h0a12.77,12.77,0,0,0,14.1-11.6l.51-6c7.93-.35,12.18-7.61,13.46-16.62A113.53,113.53,0,0,0,646.11,201.46Z" style="fill:#ffbe9d"></path><path d="M606.87,205.34c-.2-.11-8.21-3.27-8.72,5.15s8.06,7.19,8.09,6.95S606.87,205.34,606.87,205.34Z" style="fill:#ffbe9d"></path><path d="M603.86,214.1s-.16.09-.41.19a1.46,1.46,0,0,1-1.1,0c-.87-.38-1.53-1.84-1.48-3.36a4.77,4.77,0,0,1,.53-2.08,1.71,1.71,0,0,1,1.17-1.06.74.74,0,0,1,.84.46c.1.24,0,.4.08.42s.19-.13.15-.48a1,1,0,0,0-.3-.55,1.09,1.09,0,0,0-.8-.26,2.06,2.06,0,0,0-1.61,1.21,5,5,0,0,0-.65,2.32c0,1.7.72,3.34,1.92,3.76a1.57,1.57,0,0,0,1.36-.14C603.83,214.3,603.88,214.11,603.86,214.1Z" style="fill:#eb996e"></path><path d="M642.25,204c-.25.22-1.54-.93-3.51-1.11s-3.5.68-3.69.41c-.1-.11.17-.52.84-.92a5,5,0,0,1,3-.63,4.88,4.88,0,0,1,2.76,1.18C642.21,203.47,642.37,203.92,642.25,204Z" style="fill:#263238"></path><path d="M623.81,203.2c-.25.22-1.55-.94-3.51-1.11s-3.51.67-3.7.41.18-.52.85-.92a5,5,0,0,1,3-.63,4.82,4.82,0,0,1,2.77,1.18C623.76,202.65,623.93,203.1,623.81,203.2Z" style="fill:#263238"></path><path d="M623.94,197c-.2.49-1.85.37-3.71.67s-3.35.86-3.76.47c-.18-.2,0-.65.57-1.14a5.86,5.86,0,0,1,2.77-1.16,6.36,6.36,0,0,1,3.1.27C623.67,196.43,624,196.8,623.94,197Z" style="fill:#263238"></path><path d="M635.58,196.72c.56-.47,2.49-.42,4.33.12s2.87,1.36,2.31,1.83-2.49.42-4.32-.11S635,197.2,635.58,196.72Z" style="fill:#263238"></path><path d="M626.23,220.22c0,.11-.26.3-.79.33a2.77,2.77,0,0,1-1.91-.72,2.71,2.71,0,0,1-.9-1.82c0-.52.12-.83.24-.82s.36,1.15,1.28,2S626.19,220,626.23,220.22Z" style="fill:#263238"></path><path d="M631.18,233.66S621.09,233,618.85,231c0,0,1.38,5,12.09,5.41Z" style="fill:#eb996e"></path><path d="M636.08,206.41a1.7,1.7,0,0,0,1.33,2,1.63,1.63,0,0,0,2-1.22,1.7,1.7,0,0,0-1.33-1.95A1.62,1.62,0,0,0,636.08,206.41Z" style="fill:#263238"></path><path d="M618.56,205.4a1.7,1.7,0,0,0,1.33,2,1.62,1.62,0,0,0,2-1.22,1.7,1.7,0,0,0-1.32-2A1.63,1.63,0,0,0,618.56,205.4Z" style="fill:#263238"></path><path d="M628.49,214.28c0-.12.59,0,1.44,0a4.65,4.65,0,0,0,.68-.12,2.4,2.4,0,0,0,.67-.24c.08-.06.07-.07.08-.09a.93.93,0,0,0-.08-.28c-.11-.31-.22-.63-.34-1-.92-2.62-1.49-4.8-1.28-4.88s1.14,2,2.06,4.6l.33,1a1.32,1.32,0,0,1,.08.66.89.89,0,0,1-.45.63,2.37,2.37,0,0,1-.5.18l-.45.09a4.38,4.38,0,0,1-.8,0C629,214.74,628.45,214.36,628.49,214.28Z" style="fill:#263238"></path><polygon points="647.07 423.16 646.79 420.44 661.73 420.63 661.35 427.18 656.49 431.7 649.96 428.89 647.07 423.16" style="fill:#ffbe9d"></polygon><path d="M557.13,313.55s-8.3,26.23,0,35.39,53.51-1.79,53.51-1.79l-5.54,45.2h31.63s8.16-66.34,6.91-71.05c-2-7.4-10.52-12.62-28.28-12.15C600.6,309.54,557.13,313.55,557.13,313.55Z" style="fill:#263238"></path><path d="M641.61,326.23s17,1.49,18.6,11.56c1.36,8.73,8.1,82.83,8.1,82.83H641.52l-4.79-50Z" style="fill:#263238"></path><path d="M647,423l-3.13,12.6,37.16,9.21c.66-3.6-19.72-17.63-19.72-17.63h0s-4.43,1.15-7.68-.32a20.55,20.55,0,0,1-5.35-3.49Z" style="fill:#455a64"></path><path d="M649.93,428.33a1.56,1.56,0,0,0-1.48,1.47,1.51,1.51,0,0,0,1.45,1.48,1.64,1.64,0,0,0,1.55-1.57,1.56,1.56,0,0,0-1.67-1.37" style="fill:#e0e0e0"></path><g style="opacity:0.6000000000000001"><path d="M643.91,435.6l.75-3,35.41,10s1.47,1.13,1,2.25Z" style="fill:#fff"></path></g><path d="M664.92,429.27c0,.18-1,0-2,.4s-1.71,1-1.85.9.38-1.1,1.64-1.51S665,429.12,664.92,429.27Z" style="fill:#263238"></path><path d="M668.42,431.85c0,.19-.86.3-1.67.92s-1.19,1.38-1.37,1.33,0-1.11,1-1.86S668.46,431.68,668.42,431.85Z" style="fill:#263238"></path><path d="M669.48,437.07c-.18,0-.2-1,.51-1.85s1.66-1.07,1.7-.9-.62.57-1.2,1.3S669.66,437.09,669.48,437.07Z" style="fill:#263238"></path><polygon points="611.07 392.38 611.07 401.98 621.33 407.09 625.99 402.25 628.13 392.38 611.07 392.38" style="fill:#ffbe9d"></polygon><path d="M611.12,401.09l-.48,13,38.26,1.41c-.09-3.66-22.91-13.22-22.91-13.22h0s-4.1,2-7.58,1.26a20.75,20.75,0,0,1-5.95-2.32Z" style="fill:#455a64"></path><path d="M615.05,405.71a1.58,1.58,0,0,0-1.15,1.75,1.51,1.51,0,0,0,1.72,1.15,1.64,1.64,0,0,0,1.2-1.85,1.55,1.55,0,0,0-1.92-1" style="fill:#e0e0e0"></path><g style="opacity:0.6000000000000001"><path d="M610.64,414.06l.22-3.1,36.6,2.51s1.67.81,1.44,2Z" style="fill:#fff"></path></g><path d="M629.91,403.57c0,.19-.95.24-1.89.8s-1.46,1.34-1.63,1.26.15-1.15,1.3-1.82S630,403.4,629.91,403.57Z" style="fill:#263238"></path><path d="M633.87,405.38c0,.18-.79.47-1.45,1.23s-.88,1.6-1.07,1.58-.26-1.07.58-2S633.87,405.2,633.87,405.38Z" style="fill:#263238"></path><path d="M636,410.26c-.17,0-.4-.91.12-1.91s1.4-1.38,1.48-1.22-.49.68-.9,1.51S636.15,410.25,636,410.26Z" style="fill:#263238"></path><path d="M643.77,326.23a2.61,2.61,0,0,1,0,.67c-.05.49-.13,1.13-.22,1.91-.2,1.72-.47,4.1-.81,7-.67,6-1.58,14.14-2.58,23.15s-1.9,17.18-2.57,23.16c-.34,2.92-.61,5.3-.81,7-.11.78-.19,1.41-.25,1.9a2.9,2.9,0,0,1-.12.66,3.08,3.08,0,0,1,0-.67c0-.49.08-1.13.14-1.91.16-1.73.39-4.11.66-7,.57-5.93,1.42-14.13,2.41-23.18s2-17.22,2.73-23.14c.39-3,.73-5.35,1-7,.13-.78.24-1.4.32-1.89A3.83,3.83,0,0,1,643.77,326.23Z" style="fill:#455a64"></path><path d="M647.46,176.66a4.32,4.32,0,0,0-5.4.62,4.48,4.48,0,0,0-7.78-2.29,3.67,3.67,0,0,0-7,.57,9.59,9.59,0,0,0-5.28-2.2c-1.94,0-4,1.3-4.2,3.23a10.63,10.63,0,0,0-5-.44c-1.63.38-3.15,1.81-3,3.48a7.15,7.15,0,0,0-8.2,4.18,14,14,0,0,0-.43,6.08q.5,6.59,1,13.17l4.31,1.67c-.73,1.64-1.48,3.45-1,5.18s2.81,3,4.12,1.75a4,4,0,0,0,.85-3c0-1.93,0-3.87,0-5.8a9.44,9.44,0,0,1,.63-4.06c.87-1.82,2.77-2.87,4.33-4.15a14.92,14.92,0,0,0,5.33-10.44,10.47,10.47,0,0,0,12.12.83,5,5,0,0,0,7.78,3.2,3.62,3.62,0,1,0,5.37-2,6.36,6.36,0,0,0,3.55-4.46A5.13,5.13,0,0,0,647.46,176.66Z" style="fill:#263238"></path><path d="M645.51,236.55s5.43-6.12,5.56-7.22,0-4.06,0-4.06-6.86-6.41-8.09-6.29-4.2,6.86-3.1,8.71l.61,1s-2.51,1.85-4.78,3.79a6,6,0,0,0-1.08,7.8l.28.44,4.1,19.41,13.41-4.86Z" style="fill:#ffbe9d"></path><path d="M639.42,229.29a16.55,16.55,0,0,0-1.69,3.21,17.08,17.08,0,0,0-.46,3.6,6.09,6.09,0,0,1,2.15-6.81Z" style="fill:#eb996e"></path><path d="M647.08,226.68s-.33.06-.86-.13a3.27,3.27,0,0,1-1.69-1.55l.42-.11a9.12,9.12,0,0,1-.32,3.27,3.52,3.52,0,0,1-.56,1.23,1.7,1.7,0,0,1-1.17.66,1.89,1.89,0,0,1-1.85-1,2.18,2.18,0,0,1-.18-1.4c.07-.33.18-.48.21-.47s0,.18,0,.49a2.22,2.22,0,0,0,.29,1.2,1.53,1.53,0,0,0,1.48.73c.65,0,1.08-.74,1.28-1.55a10.06,10.06,0,0,0,.38-3.1l0-1.13.46,1a3.32,3.32,0,0,0,1.4,1.5C646.78,226.56,647.09,226.63,647.08,226.68Z" style="fill:#eb996e"></path><path d="M612.66,211.16l32.12,4.91s-.35,15.72-13.6,17.59S610.52,224,610.52,224Z" style="fill:#455a64"></path><path d="M606.48,204.73a27,27,0,0,1,3.71,3.8,27.41,27.41,0,0,1,3.31,4.15,27.65,27.65,0,0,1-3.71-3.8A28,28,0,0,1,606.48,204.73Z" style="fill:#455a64"></path><path d="M610.52,224a15.33,15.33,0,0,1-2.36-3.14,15.12,15.12,0,0,1-1.92-3.43,14.92,14.92,0,0,1,2.36,3.14A15.12,15.12,0,0,1,610.52,224Z" style="fill:#455a64"></path><path d="M603.19,222.87s-2.71,1.46-3,2.32-4.33,7.72-5,11.4-3.5,14.24-3.5,14.24l14.34,8,2.8-18.05a1.48,1.48,0,0,0,2.31.93,11.1,11.1,0,0,0,3.38-3.11,13.77,13.77,0,0,0,3.15-8.77,8.85,8.85,0,0,0-.21-2.28c-.49-1.35-2.14-3.41-4.46-2.66,0,0-1.55-3.73-3.77-1.53,0,0-1.78-1.5-3.5-.68C605.81,222.72,605.19,221.41,603.19,222.87Z" style="fill:#ffbe9d"></path><path d="M613.5,225c.06.14-1,.63-2.07,1.55s-1.74,1.86-1.88,1.79a5.27,5.27,0,0,1,4-3.34Z" style="fill:#eb996e"></path><path d="M612.7,235.47a9.91,9.91,0,0,1-1,1.37l-1.17,1.56-.73,1a4.34,4.34,0,0,0-.71,1.09.8.8,0,0,0,.5,1,1.68,1.68,0,0,0,1.4-.15,10.82,10.82,0,0,0,2.79-2.1,13.05,13.05,0,0,0,3.39-7.2,10.11,10.11,0,0,0-.44-5.11,3,3,0,0,0-1.57-1.61,2.12,2.12,0,0,0-2,.11l-.42.29.06-.51a2,2,0,0,0-1.25-2.09,2.09,2.09,0,0,0-2.15.44l-.15.15-.12-.17a2.56,2.56,0,0,0-3.3-.7l-.11.07,0-.11a.9.9,0,0,0-.92-.51,1.93,1.93,0,0,0-.4.12s.09-.15.38-.22a1,1,0,0,1,1.12.53l-.15,0a2.6,2.6,0,0,1,1.69-.43,2.76,2.76,0,0,1,2,1.09l-.27,0a2.41,2.41,0,0,1,4.11,2l-.36-.22a2.56,2.56,0,0,1,2.46-.17,3.49,3.49,0,0,1,1.84,1.84,10.53,10.53,0,0,1,.5,5.39,13.36,13.36,0,0,1-3.56,7.46,11.31,11.31,0,0,1-3,2.17,2.1,2.1,0,0,1-1.75.11,1.43,1.43,0,0,1-.64-.6,1.12,1.12,0,0,1,0-.86,4.28,4.28,0,0,1,.8-1.18l.76-.95c.47-.57.89-1.07,1.24-1.51A9.43,9.43,0,0,1,612.7,235.47Z" style="fill:#eb996e"></path><path d="M606.78,227.3a3.5,3.5,0,0,1,.85-2.37c.81-1.18,1.86-1.74,1.92-1.62s-.75.83-1.49,1.92S606.92,227.34,606.78,227.3Z" style="fill:#eb996e"></path><path d="M602.23,227.09a4.89,4.89,0,0,1,1.36-2.67,5,5,0,0,1,2.39-1.81c.08.13-1,.92-2,2.14S602.37,227.15,602.23,227.09Z" style="fill:#eb996e"></path><path d="M606.11,258.87a81.3,81.3,0,0,1,1.14-9.06,82.43,82.43,0,0,1,1.66-9,78.55,78.55,0,0,1-1.14,9.06A79.66,79.66,0,0,1,606.11,258.87Z" style="fill:#eb996e"></path><path d="M508.5,443.78h0a2.66,2.66,0,0,0,2.66-2.66V306.94h-5.32V441.12A2.66,2.66,0,0,0,508.5,443.78Z" style="fill:#e0e0e0"></path><path d="M710.52,443.78h0a2.66,2.66,0,0,0,2.66-2.66V306.94h-5.32V441.12A2.66,2.66,0,0,0,710.52,443.78Z" style="fill:#e0e0e0"></path><rect x="499.26" y="295.06" width="219.69" height="12.55" style="fill:#455a64"></rect><rect x="505.49" y="311.66" width="209.04" height="39.63" style="fill:#455a64"></rect><path d="M558.45,312a8,8,0,0,1-.83,2.4,12.79,12.79,0,0,1-4.73,5,27.58,27.58,0,0,1-9.7,3.29c-3.79.71-8.07,1.2-12.14,3.06a26.65,26.65,0,0,0-9.88,7.52c-1.22,1.5-2.25,3-3.31,4.38a22.34,22.34,0,0,1-3.24,3.53,10.82,10.82,0,0,1-6.29,2.71,8,8,0,0,1-1.88-.18c-.41-.12-.62-.2-.62-.2l.63.16a8.22,8.22,0,0,0,1.87.14,10.81,10.81,0,0,0,6.19-2.74,22.1,22.1,0,0,0,3.2-3.52c1-1.36,2.08-2.89,3.3-4.4a26.69,26.69,0,0,1,10-7.59c4.1-1.87,8.4-2.36,12.18-3.06a27.69,27.69,0,0,0,9.66-3.22,12.93,12.93,0,0,0,4.74-4.9,10.64,10.64,0,0,0,.72-1.74C558.38,312.18,558.45,312,558.45,312Z" style="fill:#263238"></path><path d="M571.7,350.89l-.29-.63c-.17-.43-.47-1-.87-1.79a24.39,24.39,0,0,0-4.43-5.76A27.19,27.19,0,0,0,557,337a30.42,30.42,0,0,0-13-1.74,37.35,37.35,0,0,0-12.74,3.41,46.93,46.93,0,0,0-9.18,5.7,59.53,59.53,0,0,0-5.44,4.87c-.6.62-1.07,1.1-1.38,1.44l-.48.5s.61-.74,1.8-2a57,57,0,0,1,5.4-4.94,46.68,46.68,0,0,1,9.2-5.75A37.13,37.13,0,0,1,544,335a30.21,30.21,0,0,1,13.11,1.77,27,27,0,0,1,9.12,5.79,23.9,23.9,0,0,1,4.4,5.83c.39.78.68,1.38.84,1.81S571.7,350.89,571.7,350.89Z" style="fill:#263238"></path><path d="M586,334.43l-.31-.39a6.65,6.65,0,0,0-1.06-1,15.18,15.18,0,0,0-2-1.27,21.14,21.14,0,0,1-2.8-1.67,6.09,6.09,0,0,1-2.31-3.31,3.1,3.1,0,0,1,.37-2.28,3.51,3.51,0,0,1,2-1.46,4.86,4.86,0,0,1,2.7,0,10.74,10.74,0,0,1,2.65,1.13,37.89,37.89,0,0,1,5.17,3.52,39.59,39.59,0,0,1,4.92,4.8,31.13,31.13,0,0,1,2.24,2.91A7.34,7.34,0,0,1,598.9,339a3.8,3.8,0,0,1-.45,1.92,4,4,0,0,1-1.4,1.44,9,9,0,0,1-3.88,1.2,24.66,24.66,0,0,1-8.43-.54,25.84,25.84,0,0,1-14.87-9.9c-.44-.66-.89-1.32-1.28-2a16,16,0,0,1-1-2.18,9.72,9.72,0,0,1-.64-4.81,6.5,6.5,0,0,1,2.5-4.18,10.92,10.92,0,0,1,4.57-2,21.48,21.48,0,0,1,9.84.62,51.05,51.05,0,0,1,8.91,3.64c5.59,2.87,10.91,6,16.6,7.21a21.51,21.51,0,0,0,8.37.21c2.7-.45,5.29-1.16,7.87-1.36a15.63,15.63,0,0,1,7.34,1.13,23.54,23.54,0,0,1,5.87,3.57,73.65,73.65,0,0,1,8.34,8.38,53.16,53.16,0,0,0,6.43,6.17,23.06,23.06,0,0,0,4.81,2.9,14.15,14.15,0,0,0,1.37.54l.46.17-.47-.15c-.32-.11-.78-.26-1.38-.52a22.67,22.67,0,0,1-4.84-2.88,51.37,51.37,0,0,1-6.46-6.15,75.44,75.44,0,0,0-8.35-8.35,23.72,23.72,0,0,0-5.84-3.53,15.46,15.46,0,0,0-7.26-1.11c-2.57.21-5.15.92-7.86,1.37a21.67,21.67,0,0,1-8.44-.2c-5.73-1.22-11.07-4.35-16.65-7.22a50.13,50.13,0,0,0-8.87-3.62,21.4,21.4,0,0,0-9.75-.61,10.62,10.62,0,0,0-4.48,1.95,6.28,6.28,0,0,0-2.42,4.05,9.41,9.41,0,0,0,.62,4.7,15.18,15.18,0,0,0,1,2.16c.38.69.84,1.33,1.26,2a25.75,25.75,0,0,0,14.75,9.84,24.82,24.82,0,0,0,8.37.54,9,9,0,0,0,3.81-1.17,3.88,3.88,0,0,0,1.33-1.37,3.56,3.56,0,0,0,.43-1.83,7.15,7.15,0,0,0-1.28-3.48,30.67,30.67,0,0,0-2.22-2.89,37.37,37.37,0,0,0-4.9-4.79,38.68,38.68,0,0,0-5.14-3.53c-1.67-1-3.56-1.65-5.25-1.12a3.38,3.38,0,0,0-2,1.41,3,3,0,0,0-.36,2.2,6.06,6.06,0,0,0,2.26,3.27,22.12,22.12,0,0,0,2.78,1.68,15.12,15.12,0,0,1,2,1.28,7.34,7.34,0,0,1,1.05,1C585.9,334.29,586,334.43,586,334.43Z" style="fill:#263238"></path><path d="M670.69,351.08l-.84,0a17.25,17.25,0,0,1-2.4-.15,16.36,16.36,0,0,1-8.05-3.47,119.4,119.4,0,0,1-20.18-21,26.4,26.4,0,0,0-5.85-5.81,11.72,11.72,0,0,0-3.55-1.62,12.51,12.51,0,0,0-3.74-.33c-2.45.13-4.77.62-7,.63a18.12,18.12,0,0,1-6-1.06,31,31,0,0,1-7.76-4.22c-1.69-1.23-2.56-2-2.56-2s.24.17.67.51,1.09.82,1.94,1.42a31.62,31.62,0,0,0,7.76,4.14,17.68,17.68,0,0,0,6,1c2.19,0,4.5-.5,7-.64a12.6,12.6,0,0,1,3.79.33,11.74,11.74,0,0,1,3.61,1.64,26.85,26.85,0,0,1,5.91,5.85,120.53,120.53,0,0,0,20.1,21,16.5,16.5,0,0,0,10.36,3.69Z" style="fill:#263238"></path><path d="M714.53,319.88l-1-.17a15.47,15.47,0,0,0-3-.12,19.55,19.55,0,0,0-10.1,3.73A27.06,27.06,0,0,0,695,328.5a50.22,50.22,0,0,0-4.74,7.23c-.74,1.33-1.45,2.72-2.17,4.14a33.64,33.64,0,0,1-2.41,4.27,10.27,10.27,0,0,1-3.74,3.42,10.8,10.8,0,0,1-5.09,1.14,17.69,17.69,0,0,1-9.6-3.43,50,50,0,0,1-7.36-6.15,55,55,0,0,1-9.55-13.07,52.55,52.55,0,0,1-4.06-10.14c-.36-1.25-.59-2.22-.73-2.89s-.21-1-.21-1,.09.34.25,1,.39,1.64.76,2.87a54.18,54.18,0,0,0,4.12,10.1,54.84,54.84,0,0,0,9.56,13,50,50,0,0,0,7.33,6.12,17.53,17.53,0,0,0,9.49,3.4,10.78,10.78,0,0,0,5-1.12,10.26,10.26,0,0,0,3.66-3.35,33.88,33.88,0,0,0,2.4-4.25c.72-1.42,1.44-2.81,2.19-4.15a49.33,49.33,0,0,1,4.77-7.24,27.4,27.4,0,0,1,5.48-5.2,19.48,19.48,0,0,1,10.18-3.68,15,15,0,0,1,3,.16Z" style="fill:#263238"></path><path d="M714.53,330.3l-.25.19c-.17.11-.41.3-.71.53a15.05,15.05,0,0,0-2.28,2.31,28.08,28.08,0,0,0-2.61,4c-.87,1.6-1.73,3.41-2.76,5.24a20.6,20.6,0,0,1-3.51,4.79,14.83,14.83,0,0,1-4,2.76,12.5,12.5,0,0,1-3.11,1,7.39,7.39,0,0,1-1.19.11s.42,0,1.18-.19a12.9,12.9,0,0,0,3-1.07,15.22,15.22,0,0,0,3.91-2.77,21.16,21.16,0,0,0,3.46-4.75c1-1.83,1.88-3.64,2.77-5.23a26.18,26.18,0,0,1,2.67-4,13.7,13.7,0,0,1,2.34-2.28A8.16,8.16,0,0,1,714.53,330.3Z" style="fill:#263238"></path><path d="M682.22,312.18a3.16,3.16,0,0,0-1.57,1.71,5.14,5.14,0,0,0-.3,2.72c.13,1.08.53,2.27.82,3.62a25.33,25.33,0,0,1,.2,9.64,11,11,0,0,1-2,5.31,3.43,3.43,0,0,1-2.74,1.22,5.11,5.11,0,0,1-2.89-1.18,13.2,13.2,0,0,1-2.21-2.21c-.65-.8-1.26-1.6-1.82-2.42a35.59,35.59,0,0,1-2.9-4.93,7.11,7.11,0,0,1-.68-2.59,3.35,3.35,0,0,1,.82-2.38,3.7,3.7,0,0,1,4.25-.72,4.9,4.9,0,0,1,2.39,2.79,6.38,6.38,0,0,1,.28,2.78,8.5,8.5,0,0,1-.39,1.74,6.07,6.07,0,0,1-.22.57s.07-.2.18-.59a8.74,8.74,0,0,0,.35-1.72,6.3,6.3,0,0,0-.31-2.75,4.8,4.8,0,0,0-2.35-2.69,3.55,3.55,0,0,0-4.05.71,3.09,3.09,0,0,0-.76,2.25,6.8,6.8,0,0,0,.67,2.52,34.18,34.18,0,0,0,2.89,4.89c.56.81,1.17,1.62,1.81,2.41a12.79,12.79,0,0,0,2.17,2.18,5.09,5.09,0,0,0,2.77,1.14,3.29,3.29,0,0,0,2.59-1.15c1.29-1.49,1.65-3.46,2-5.22a25.27,25.27,0,0,0-.15-9.57c-.28-1.34-.67-2.54-.79-3.63a5.24,5.24,0,0,1,.34-2.78,3.4,3.4,0,0,1,1.09-1.39A1.91,1.91,0,0,1,682.22,312.18Z" style="fill:#263238"></path><path d="M523.28,312a28.07,28.07,0,0,1-.76,4.71,37.07,37.07,0,0,1-4.39,10.63,35.78,35.78,0,0,1-3.76,5.11,13,13,0,0,1-3.94,3.36,5,5,0,0,1-3.43.41,3,3,0,0,1-1.16-.54,5.26,5.26,0,0,0,1.18.47,5.08,5.08,0,0,0,3.35-.47,13.1,13.1,0,0,0,3.85-3.35,37.6,37.6,0,0,0,3.74-5.1,38.22,38.22,0,0,0,4.41-10.55c.36-1.43.57-2.6.7-3.42.06-.35.1-.66.14-.93A1.77,1.77,0,0,1,523.28,312Z" style="fill:#263238"></path><path d="M555.12,295H494.3a17.67,17.67,0,0,1,0-10.56h60.82A13.81,13.81,0,0,1,555.12,295Z" style="fill:#16A3B2"></path><path d="M512.32,287.79l-.66,3.31h-.23l.56-2.82-1.83,2.38H510l-.94-2.41-.57,2.85h-.23l.66-3.31h.2l1,2.56,2-2.56Z" style="fill:#f5f5f5"></path><path d="M515.43,288.63l-.49,2.47h-.23l.1-.48a1.28,1.28,0,0,1-1,.5,1,1,0,0,1-1.07-1,1.4,1.4,0,0,1,1.4-1.48.91.91,0,0,1,1,.63l.13-.61Zm-.46,1a.78.78,0,0,0-.87-.83,1.17,1.17,0,0,0-1.16,1.26.78.78,0,0,0,.87.83A1.17,1.17,0,0,0,515,289.65Z" style="fill:#f5f5f5"></path><path d="M516.36,290.38a1.21,1.21,0,0,0,0,.18c0,.23.12.35.37.35a.67.67,0,0,0,.41-.13l.07.17a.86.86,0,0,1-.53.17.51.51,0,0,1-.57-.53,1.37,1.37,0,0,1,0-.19l.32-1.57H516l0-.2h.46l.11-.54h.23l-.1.54h.78l0,.2h-.78Z" style="fill:#f5f5f5"></path><path d="M520.34,289.4a2.45,2.45,0,0,1,0,.27L520,291.1h-.23l.28-1.43a1,1,0,0,0,0-.24c0-.38-.23-.61-.69-.61a1.05,1.05,0,0,0-1.09.93l-.27,1.35h-.23l.7-3.51h.23l-.29,1.5a1.18,1.18,0,0,1,1-.48C520,288.61,520.34,288.91,520.34,289.4Z" style="fill:#f5f5f5"></path><path d="M521.21,289.92a.76.76,0,0,0,0,.15c0,.54.31.84.91.84a1.14,1.14,0,0,0,.85-.34l.11.17a1.33,1.33,0,0,1-1,.38,1,1,0,0,1-1.12-1,1.38,1.38,0,0,1,1.35-1.47,1,1,0,0,1,1,1,2.19,2.19,0,0,1,0,.28Zm0-.19h1.9v-.12a.76.76,0,0,0-.83-.8A1.09,1.09,0,0,0,521.24,289.73Z" style="fill:#f5f5f5"></path><path d="M528.21,289.39a1.41,1.41,0,0,1,0,.28l-.28,1.43h-.24l.29-1.43a1.06,1.06,0,0,0,0-.24c0-.38-.22-.61-.67-.61a1,1,0,0,0-1,.88l-.29,1.4h-.23l.29-1.43a2.32,2.32,0,0,0,0-.24c0-.38-.22-.61-.67-.61a1,1,0,0,0-1,.93l-.27,1.35h-.23l.49-2.47h.23l-.1.46a1.17,1.17,0,0,1,1-.48.76.76,0,0,1,.83.55,1.21,1.21,0,0,1,1.07-.55C527.91,288.61,528.21,288.91,528.21,289.39Z" style="fill:#f5f5f5"></path><path d="M531.57,288.63l-.5,2.47h-.22l.09-.48a1.27,1.27,0,0,1-1,.5,1,1,0,0,1-1.06-1,1.39,1.39,0,0,1,1.39-1.48.92.92,0,0,1,1,.63l.12-.61Zm-.46,1a.78.78,0,0,0-.88-.83,1.18,1.18,0,0,0-1.16,1.26.78.78,0,0,0,.88.83A1.17,1.17,0,0,0,531.11,289.65Z" style="fill:#f5f5f5"></path><path d="M532.5,290.38a.62.62,0,0,0,0,.18c0,.23.12.35.38.35a.64.64,0,0,0,.4-.13l.07.17a.84.84,0,0,1-.53.17.5.5,0,0,1-.56-.53.65.65,0,0,1,0-.19l.31-1.57h-.45l0-.2h.46l.11-.54H533l-.11.54h.78l0,.2h-.79Z" style="fill:#f5f5f5"></path><path d="M534.44,288.63h.24l-.49,2.47H534Zm.08-.78a.21.21,0,0,1,.21-.21.18.18,0,0,1,.19.18.21.21,0,0,1-.22.21A.18.18,0,0,1,534.52,287.85Z" style="fill:#f5f5f5"></path><path d="M535.15,290.09a1.4,1.4,0,0,1,1.42-1.48,1,1,0,0,1,.93.46l-.19.12a.82.82,0,0,0-.76-.37,1.18,1.18,0,0,0-1.17,1.26.79.79,0,0,0,.9.83,1.05,1.05,0,0,0,.82-.36l.16.13a1.24,1.24,0,0,1-1,.44A1,1,0,0,1,535.15,290.09Z" style="fill:#f5f5f5"></path><path d="M540.46,288.63,540,291.1h-.23l.1-.48a1.28,1.28,0,0,1-1,.5,1,1,0,0,1-1.07-1,1.4,1.4,0,0,1,1.4-1.48.91.91,0,0,1,1,.63l.12-.61Zm-.46,1a.78.78,0,0,0-.87-.83,1.17,1.17,0,0,0-1.16,1.26.78.78,0,0,0,.87.83A1.17,1.17,0,0,0,540,289.65Z" style="fill:#f5f5f5"></path><path d="M541.66,287.59h.24l-.7,3.51H541Z" style="fill:#f5f5f5"></path><path d="M496.85,288.81l3.31.66v.24l-3.1-.62v.81l-.21,0Z" style="fill:#f5f5f5"></path><path d="M504.65,284.48a54.66,54.66,0,0,1-1.66,5.34c-1,2.92-1.85,5.27-1.92,5.24a54,54,0,0,1,1.66-5.33C503.72,286.8,504.58,284.45,504.65,284.48Z" style="fill:#fff"></path><path d="M507.13,284.48c.07,0-.67,2.41-1.66,5.34a52,52,0,0,1-1.93,5.24c-.07,0,.67-2.41,1.66-5.33A54.74,54.74,0,0,1,507.13,284.48Z" style="fill:#fff"></path><path d="M547.76,284.48c.07,0-.67,2.41-1.66,5.34a55.12,55.12,0,0,1-1.93,5.24c-.07,0,.67-2.41,1.66-5.33A51.69,51.69,0,0,1,547.76,284.48Z" style="fill:#fff"></path><path d="M550.23,284.48c.08,0-.67,2.41-1.65,5.34s-1.86,5.27-1.93,5.24.67-2.41,1.66-5.33S550.16,284.45,550.23,284.48Z" style="fill:#fff"></path><path d="M546.51,284.59H485.69a9.12,9.12,0,0,1,0-7.52h60.82A7.26,7.26,0,0,1,546.51,284.59Z" style="fill:#455a64"></path><path d="M506.15,279.18h.65v2.27h1.4V282h-2.05Z" style="fill:#f5f5f5"></path><path d="M510.44,280.75V282h-.58v-.27a.71.71,0,0,1-.66.3c-.5,0-.8-.28-.8-.65s.27-.64.92-.64h.5c0-.27-.16-.42-.5-.42a1,1,0,0,0-.61.2l-.23-.44a1.72,1.72,0,0,1,.93-.26C510.06,279.79,510.44,280.1,510.44,280.75Zm-.62.54v-.22h-.43c-.29,0-.38.11-.38.26s.13.25.35.25A.45.45,0,0,0,509.82,281.29Z" style="fill:#f5f5f5"></path><path d="M513.2,280.74V282h-.62v-1.13c0-.35-.16-.51-.44-.51s-.51.19-.51.58V282H511v-2.14h.6v.25a.93.93,0,0,1,.71-.29A.85.85,0,0,1,513.2,280.74Z" style="fill:#f5f5f5"></path><path d="M516,279.83v1.78a1.05,1.05,0,0,1-1.21,1.17,1.74,1.74,0,0,1-1-.3L514,282a1.32,1.32,0,0,0,.76.24c.43,0,.63-.2.63-.59v-.09a.9.9,0,0,1-.68.27,1,1,0,1,1,0-2.08.86.86,0,0,1,.71.31v-.27Zm-.62,1a.56.56,0,0,0-1.12,0,.56.56,0,0,0,1.12,0Z" style="fill:#f5f5f5"></path><path d="M518.74,279.83V282h-.59v-.25a.9.9,0,0,1-.67.28.85.85,0,0,1-.92-1v-1.21h.63V281c0,.36.16.52.43.52s.5-.19.5-.58v-1.06Z" style="fill:#f5f5f5"></path><path d="M521.22,280.75V282h-.59v-.27a.69.69,0,0,1-.65.3c-.5,0-.8-.28-.8-.65s.27-.64.92-.64h.49c0-.27-.16-.42-.49-.42a1,1,0,0,0-.62.2l-.22-.44a1.69,1.69,0,0,1,.92-.26C520.84,279.79,521.22,280.1,521.22,280.75Zm-.63.54v-.22h-.42c-.29,0-.39.11-.39.26s.14.25.36.25A.45.45,0,0,0,520.59,281.29Z" style="fill:#f5f5f5"></path><path d="M524,279.83v1.78a1.05,1.05,0,0,1-1.21,1.17,1.74,1.74,0,0,1-1-.3L522,282a1.31,1.31,0,0,0,.75.24c.44,0,.63-.2.63-.59v-.09a.86.86,0,0,1-.67.27,1,1,0,1,1,0-2.08.86.86,0,0,1,.71.31v-.27Zm-.62,1a.52.52,0,0,0-.56-.53.53.53,0,0,0-.57.53.53.53,0,0,0,.57.53A.52.52,0,0,0,523.4,280.83Z" style="fill:#f5f5f5"></path><path d="M526.69,281.07h-1.63a.58.58,0,0,0,.62.44.71.71,0,0,0,.53-.21l.34.36a1.15,1.15,0,0,1-.89.34,1.11,1.11,0,1,1-.08-2.21,1.07,1.07,0,0,1,1.12,1.12S526.69,281,526.69,281.07Zm-1.64-.36h1.06a.51.51,0,0,0-.53-.45A.52.52,0,0,0,525.05,280.71Z" style="fill:#f5f5f5"></path><path d="M489.8,280.74h2.8v.65h-2.28v.55h-.52Z" style="fill:#f5f5f5"></path><polygon points="494.01 277.07 496.9 284.59 500.68 284.59 498.28 277.07 494.01 277.07" style="fill:#263238"></polygon><polygon points="531.36 277.07 534.24 284.59 538.03 284.59 535.62 277.07 531.36 277.07" style="fill:#263238"></polygon></g><g id="freepik--bagpack-2--inject-103"><path d="M508,428.87a1.89,1.89,0,0,0-1.29-1.92,33.42,33.42,0,0,1-3.8,6.82,11.17,11.17,0,0,1-6.38,4.26l.17,0c.43.89.87,1.79,1.3,2.69a10.36,10.36,0,0,0,5.65-3.67,30.5,30.5,0,0,0,3.56-5.84A5.42,5.42,0,0,0,508,428.87Z" style="fill:#263238"></path><path d="M516.69,361.07c-.88-1.31-1.79-2.91-1.18-4.36a4.34,4.34,0,0,1,2.72-2.09,20,20,0,0,1,5.82-1.17,6.4,6.4,0,0,1,3.38.56c1.85,1,2.52,3.4,2.34,5.5-.62.25-1.26-.41-1.4-1.06s0-1.34-.21-2a2.71,2.71,0,0,0-1.69-1.65,6.15,6.15,0,0,0-2.41-.28,18.55,18.55,0,0,0-4.38.71,4.15,4.15,0,0,0-2.44,1.49c-.85,1.31-.17,3.05.51,4.46" style="fill:#16A3B2"></path><path d="M566.14,426.27s-13.82-49.71-15.38-54c-1.78-4.84-13.11-15-26.48-13.89-10.88.89-19.6,7.69-20.36,24.43-.52,11.54,1.94,36.28,3.51,50.53a11.7,11.7,0,0,0,12,10.42H562S570.39,435.89,566.14,426.27Z" style="fill:#16A3B2"></path><path d="M524.71,404.49a4.7,4.7,0,0,0-4.19,5.17c.54,5.14,1.78,13.65,2.57,18.9a5.08,5.08,0,0,0,5.37,4.31l29.29-2.49a3.81,3.81,0,0,0,3.44-4.32c-.82-5.87-3.05-16.65-4.15-21.86a3.38,3.38,0,0,0-3.65-2.66Z" style="fill:#263238"></path><path d="M528.37,432.73a5.58,5.58,0,0,1-.31-1.08c-.18-.69-.4-1.71-.67-3-.53-2.51-1.18-6-1.78-9.86s-1-7.39-1.26-9.94c-.12-1.28-.21-2.31-.25-3a5.22,5.22,0,0,1,0-1.11,5.12,5.12,0,0,1,.2,1.09c.11.81.24,1.81.4,3,.33,2.54.8,6,1.39,9.91s1.2,7.35,1.65,9.87c.21,1.19.38,2.19.52,3A5.21,5.21,0,0,1,528.37,432.73Z" style="fill:#455a64"></path><path d="M557.47,409a6.76,6.76,0,0,1-1.25.28c-.81.15-2,.36-3.45.59-2.91.47-6.95,1-11.43,1.55s-8.54.88-11.49,1.09c-1.47.1-2.66.17-3.49.2a6.62,6.62,0,0,1-1.28,0,7.6,7.6,0,0,1,1.27-.18l3.48-.36c2.93-.28,7-.69,11.46-1.21s8.51-1,11.44-1.42l3.46-.44A7.13,7.13,0,0,1,557.47,409Z" style="fill:#455a64"></path><path d="M557,408.72s.31.31.58.94a6.56,6.56,0,0,1,.36,1.15,1.83,1.83,0,0,1,0,.78,1,1,0,0,1-.6.7.78.78,0,0,1-.92-.29,1.25,1.25,0,0,1-.21-.78,5.49,5.49,0,0,1,.19-1.21c.18-.66.41-1,.47-1a4.67,4.67,0,0,1-.16,1.07,6.45,6.45,0,0,0-.08,1.13c0,.39.25.79.55.66s.41-.58.33-1a9.69,9.69,0,0,0-.26-1.11C557.06,409.13,556.91,408.75,557,408.72Z" style="fill:#455a64"></path><path d="M526.15,358.56l-.24.06-.71.15c-.62.13-1.54.31-2.72.58a30.94,30.94,0,0,0-4.21,1.27,14.6,14.6,0,0,0-4.89,3,13.61,13.61,0,0,0-3.48,6,24.62,24.62,0,0,0-.82,8c.11,2.85.46,5.84.73,8.95s.58,6.32.89,9.61c.59,6.59,1.16,12.86,1.68,18.57s.93,10.85,1.4,15.16,1,7.76,1.54,10.13c.24,1.18.46,2.1.61,2.72.07.29.12.52.16.7a2.12,2.12,0,0,1,0,.25.92.92,0,0,1-.09-.23c-.06-.18-.12-.41-.21-.7-.18-.61-.42-1.52-.7-2.7a94.31,94.31,0,0,1-1.68-10.14c-.51-4.31-1-9.45-1.5-15.15s-1.11-12-1.72-18.57c-.3-3.29-.59-6.5-.87-9.61s-.61-6.09-.71-9a24.91,24.91,0,0,1,.88-8.12,13.76,13.76,0,0,1,3.62-6.1,14.66,14.66,0,0,1,5-3,29.46,29.46,0,0,1,4.26-1.2c1.19-.25,2.12-.4,2.75-.5l.72-.1Z" style="fill:#263238"></path><rect x="526.19" y="377.59" width="14.99" height="5.74" transform="translate(-45.55 73.78) rotate(-7.59)" style="fill:#fff"></rect><path d="M506,385.94,508,368.21c-3.83,5-5.47,11.21-7.37,17.18a162.56,162.56,0,0,1-11.45,27.19c-2.74,5.14-5.79,10.23-7.14,15.89s-2.23,10.18,1.73,14.46l15.23.2c1.13-1.46,2.21-3.56,1-5a3.43,3.43,0,0,0-3.23-.87,18.76,18.76,0,0,1-3.46.56c-2.93-.12-5-3.24-5-6.17s1.33-5.66,2.64-8.28A254.35,254.35,0,0,0,506,385.94Z" style="fill:#16A3B2"></path><path d="M505.29,372.51a4.94,4.94,0,0,1-.11,1.07c-.11.68-.25,1.67-.41,2.89a93.86,93.86,0,0,0-.71,9.59c-.08,3.76,0,7.17.16,9.63,0,1.16.1,2.13.14,2.92a4.89,4.89,0,0,1,0,1.07,5.07,5.07,0,0,1-.18-1.06c-.09-.68-.19-1.68-.28-2.91a96.5,96.5,0,0,1-.29-9.66,70.9,70.9,0,0,1,.84-9.62c.2-1.22.39-2.21.55-2.88A5.53,5.53,0,0,1,505.29,372.51Z" style="fill:#263238"></path></g><g id="freepik--character-1--inject-103"><rect x="110.17" y="392.4" width="78.9" height="4.38" style="fill:#e0e0e0"></rect><path d="M108.79,443.78h0a2.66,2.66,0,0,0,2.66-2.66V244.5a2.66,2.66,0,0,0-2.66-2.66h0a2.66,2.66,0,0,0-2.65,2.66V441.12A2.66,2.66,0,0,0,108.79,443.78Z" style="fill:#e0e0e0"></path><path d="M189.89,443.83h0a2.66,2.66,0,0,0,2.66-2.66V242.26a2.66,2.66,0,0,0-2.66-2.66h0a2.66,2.66,0,0,0-2.66,2.66V441.17A2.66,2.66,0,0,0,189.89,443.83Z" style="fill:#e0e0e0"></path><rect x="97.68" y="248.95" width="107.6" height="41.26" rx="7.98" style="fill:#455a64"></rect><path d="M144.49,248.82s.08.19.22.58a6.09,6.09,0,0,1,.24,1.77,8.62,8.62,0,0,1-2.68,5.86c-2,2.05-5.21,3.25-8.81,3.85s-7.71.81-11.55,2.58a11.76,11.76,0,0,0-4.65,3.87,56,56,0,0,0-3,4.9,17.68,17.68,0,0,1-3.12,4.17,13,13,0,0,1-3.82,2.45,13.22,13.22,0,0,1-6.44,1,10,10,0,0,1-2.36-.49s.22,0,.61.14a12.06,12.06,0,0,0,1.76.27,13.48,13.48,0,0,0,6.38-1,13.12,13.12,0,0,0,3.75-2.45,17.62,17.62,0,0,0,3.07-4.13,54.49,54.49,0,0,1,3-4.93,11.94,11.94,0,0,1,4.73-3.94c3.9-1.79,8-1.92,11.61-2.58s6.81-1.76,8.74-3.77a8.65,8.65,0,0,0,2.7-5.75A6.64,6.64,0,0,0,144.49,248.82Z" style="fill:#263238"></path><path d="M115.24,248.51a5.83,5.83,0,0,1,.5,1,8.44,8.44,0,0,1,.57,3,9.3,9.3,0,0,1-1.1,4.44,13.26,13.26,0,0,1-3.6,4.3,18,18,0,0,1-4.94,2.68,33,33,0,0,1-4.41,1.26c-1.28.27-2.32.45-3,.58l-.82.13a1.1,1.1,0,0,1-.3,0l.29-.07.82-.17c.71-.15,1.75-.35,3-.65a34.88,34.88,0,0,0,4.38-1.29,17.92,17.92,0,0,0,4.87-2.67,12.9,12.9,0,0,0,3.56-4.22,9.46,9.46,0,0,0,1.13-4.35,8.53,8.53,0,0,0-.51-3c-.12-.34-.23-.6-.31-.78A1,1,0,0,1,115.24,248.51Z" style="fill:#263238"></path><path d="M132.29,279.3a3.55,3.55,0,0,0,1,.12,3.21,3.21,0,0,0,2.34-1.35,3.4,3.4,0,0,0,.68-1.86,3.53,3.53,0,0,0-.78-2.21,5,5,0,0,0-5.25-1.69,9.4,9.4,0,0,0-5.5,4.22,6.48,6.48,0,0,0-1,3.74,5.68,5.68,0,0,0,1.75,3.68,7,7,0,0,0,3.86,1.93,10.33,10.33,0,0,0,4.54-.33,11.38,11.38,0,0,0,7.18-6,8.64,8.64,0,0,0-1.23-9.07,7,7,0,0,0-3.86-2.3,9.57,9.57,0,0,0-4.36.09,20.09,20.09,0,0,0-7.28,3.63,33.1,33.1,0,0,0-5.27,4.81,33.94,33.94,0,0,0-5.61,8.67c-.51,1.11-.84,2-1.06,2.61s-.33.93-.33.93a27.69,27.69,0,0,1,1.31-3.58,33.78,33.78,0,0,1,5.58-8.73,32.91,32.91,0,0,1,5.28-4.85,20.32,20.32,0,0,1,7.33-3.68,10,10,0,0,1,4.46-.1,7.25,7.25,0,0,1,4,2.37,8.86,8.86,0,0,1,1.26,9.29,11.57,11.57,0,0,1-7.31,6.14,10.47,10.47,0,0,1-4.64.34,7.22,7.22,0,0,1-4-2,5.82,5.82,0,0,1-1.8-3.8,6.77,6.77,0,0,1,1.07-3.84,9.64,9.64,0,0,1,5.61-4.28,5.18,5.18,0,0,1,5.38,1.76,3.66,3.66,0,0,1,.79,2.29,3.5,3.5,0,0,1-.71,1.91,3.24,3.24,0,0,1-2.41,1.34,2,2,0,0,1-.73-.08Z" style="fill:#263238"></path><path d="M168,249.13l-.55.06a12.92,12.92,0,0,0-1.57.18,20.07,20.07,0,0,0-5.54,1.68,21.31,21.31,0,0,0-6.88,5.07,20.34,20.34,0,0,0-4.76,9.27c-.85,3.65-1.09,7.24-1.62,10.45a26.22,26.22,0,0,1-2.57,8.24,13.53,13.53,0,0,1-3.66,4.51,8.48,8.48,0,0,1-1.33.87c-.31.18-.49.26-.49.26s.16-.11.47-.29a11.31,11.31,0,0,0,1.3-.9,13.91,13.91,0,0,0,3.58-4.51,26.67,26.67,0,0,0,2.51-8.21c.52-3.21.75-6.79,1.61-10.47a20.32,20.32,0,0,1,4.82-9.35,21.26,21.26,0,0,1,7-5.07,19,19,0,0,1,5.59-1.63,13.82,13.82,0,0,1,1.58-.15Z" style="fill:#263238"></path><path d="M199.13,248.42l-.47.57a11.57,11.57,0,0,1-1.53,1.49,18.75,18.75,0,0,1-7,3.51,37.1,37.1,0,0,1-5.31,1.08c-1.93.24-4,.39-6.19.57-4.32.36-9.25.78-13.71,3.21a27.59,27.59,0,0,0-10,9.82,48.53,48.53,0,0,0-4.76,10.55c-1,3.14-1.69,5.74-2.16,7.53-.23.85-.41,1.54-.54,2.06l-.2.71s.05-.25.16-.72.29-1.21.5-2.07c.45-1.8,1.09-4.4,2.1-7.55a47.78,47.78,0,0,1,4.74-10.61,27.76,27.76,0,0,1,10.07-9.91,24.12,24.12,0,0,1,7-2.39,60.94,60.94,0,0,1,6.83-.82c2.18-.17,4.25-.32,6.18-.55a37.22,37.22,0,0,0,5.29-1.05,19.15,19.15,0,0,0,7-3.43,13.88,13.88,0,0,0,1.55-1.45C199,248.6,199.13,248.42,199.13,248.42Z" style="fill:#263238"></path><path d="M167.67,283s.31-.67,1-1.88a26.27,26.27,0,0,1,3.64-4.78,27.39,27.39,0,0,1,7.54-5.54A26.42,26.42,0,0,1,191.62,268h.16l-.08.13a49.25,49.25,0,0,1-17.9,17.19c-1.34.73-2.71,1.45-4.15,2.06a13.92,13.92,0,0,1-4.51,1.38,5.12,5.12,0,0,1-3.22-.76,3.47,3.47,0,0,1-1.61-2.79,6.47,6.47,0,0,1,.84-3.12,28.19,28.19,0,0,1,1.69-2.68,37.18,37.18,0,0,1,18-13.65c3.23-1.12,6.35-1.78,9.11-2.63a26.14,26.14,0,0,0,7.11-3.16,15.34,15.34,0,0,0,4.21-4.06,10.52,10.52,0,0,0,1.55-3.36,6.53,6.53,0,0,0,.2-.95c0-.22.07-.33.07-.33s0,.11-.05.33a7,7,0,0,1-.17,1,10.57,10.57,0,0,1-1.53,3.39,15.46,15.46,0,0,1-4.21,4.12,26.13,26.13,0,0,1-7.13,3.2c-2.77.87-5.89,1.53-9.1,2.65A37.06,37.06,0,0,0,163,279.52a24.26,24.26,0,0,0-1.67,2.66,6.15,6.15,0,0,0-.82,3,3.26,3.26,0,0,0,1.52,2.63,5,5,0,0,0,3.08.73,14.12,14.12,0,0,0,4.45-1.37c1.43-.61,2.8-1.32,4.13-2.05a48.16,48.16,0,0,0,7.32-5A48.78,48.78,0,0,0,191.55,268l.07.13A26.35,26.35,0,0,0,179.9,271a27.35,27.35,0,0,0-11.2,10.22c-.36.59-.59,1.07-.77,1.38Z" style="fill:#263238"></path><path d="M205.77,263s0,.14-.13.39-.24.66-.4,1.08a17.65,17.65,0,0,1-.71,1.7c-.3.65-.6,1.4-1,2.19s-.88,1.67-1.44,2.57-1.19,1.85-1.86,2.83a48.51,48.51,0,0,1-5,5.9,49.65,49.65,0,0,1-6,4.94c-1,.65-1.93,1.29-2.86,1.81s-1.78,1-2.59,1.4-1.56.72-2.21,1-1.23.51-1.71.68l-1.09.39-.38.12a2.47,2.47,0,0,1,.37-.16l1.08-.43a17.54,17.54,0,0,0,1.68-.71c.65-.3,1.4-.6,2.19-1s1.68-.86,2.57-1.41,1.85-1.16,2.84-1.82a51.11,51.11,0,0,0,5.94-4.93,51.83,51.83,0,0,0,5-5.86c.67-1,1.33-1.89,1.86-2.81s1-1.75,1.46-2.55.76-1.53,1.07-2.17a18.31,18.31,0,0,0,.73-1.68l.44-1.07Z" style="fill:#263238"></path><path d="M118.51,338.11a9.7,9.7,0,0,1-8.78-12.52,117.5,117.5,0,0,1,4.52-12.36c4.18-9.52,8.37-9.87,8.37-9.87l58.46.27s6.68,12.32,7.47,20.61-1.28,17.48-1.28,17.48Z" style="fill:#263238"></path><path d="M143.16,333.43c-1.25,1.76,15.57,30.27,14.27,34.59s-9.54,47.61-9.54,47.61l12.92,6.05s18.27-34,21.73-52.51c3.53-18.92,8.18-27.95,2.56-38.76S157,314,143.16,333.43Z" style="fill:#aa6550"></path><path d="M149.45,411.83l-5.87,11L176,440.14c1.47-3.2-14.21-21.06-14.21-21.06h0s-4.4,0-7.08-2.09a19.84,19.84,0,0,1-4.16-4.52Z" style="fill:#455a64"></path><path d="M150.89,417.47a1.5,1.5,0,0,0-1.72,1,1.43,1.43,0,0,0,1,1.71,1.58,1.58,0,0,0,1.82-1.09,1.5,1.5,0,0,0-1.24-1.67" style="fill:#e0e0e0"></path><g style="opacity:0.6000000000000001"><path d="M143.58,422.83l1.49-2.59,30.54,17.57s1.11,1.4.4,2.33Z" style="fill:#fff"></path></g><path d="M164.63,421.88c-.09.15-.92-.2-2-.1s-1.82.53-1.93.39.61-.93,1.88-1S164.74,421.75,164.63,421.88Z" style="fill:#263238"></path><path d="M167.28,425.1c0,.17-.87.08-1.77.46s-1.43,1-1.58.92.22-1,1.34-1.5S167.36,425,167.28,425.1Z" style="fill:#263238"></path><path d="M167,430.2c-.16,0,0-.95.91-1.6s1.79-.6,1.79-.43-.71.38-1.41.93S167.21,430.27,167,430.2Z" style="fill:#263238"></path><path d="M111.6,327.15s-7.62,25.25-3.73,34.76,32.55,58.45,32.73,58.24l7.29-.56L153,412.9s-13.35-42.66-15-48.32c-1.47-5,8.26-17.54,8.26-29.21S121.11,316.78,111.6,327.15Z" style="fill:#aa6550"></path><path d="M127.32,356.4a4.62,4.62,0,0,1,.83,1.79,11.17,11.17,0,0,1-1.36,9.23,4.53,4.53,0,0,1-1.31,1.47,18.54,18.54,0,0,1,1-1.67,12.83,12.83,0,0,0,1.49-4.34,13,13,0,0,0-.17-4.6A18.3,18.3,0,0,1,127.32,356.4Z" style="fill:#894536"></path><path d="M153,412.21a2.26,2.26,0,0,1-.23-.53c-.15-.41-.34-.92-.56-1.55-.5-1.42-1.17-3.36-2-5.73-1.61-4.86-3.72-11.61-5.94-19.1s-4.19-14.21-5.66-19.18l-1.65-5.83c-.17-.64-.32-1.17-.43-1.59a2.15,2.15,0,0,1-.11-.56,2.09,2.09,0,0,1,.21.53l.52,1.57,1.82,5.78c1.5,5,3.54,11.69,5.8,19.13s4.27,14.25,5.79,19.13l1.82,5.78c.19.64.34,1.17.47,1.58A3.23,3.23,0,0,1,153,412.21Z" style="fill:#894536"></path><path d="M174.22,374.83a4.84,4.84,0,0,1-1.7-1,12.14,12.14,0,0,1-4.39-8.32,5,5,0,0,1,.11-2,15.42,15.42,0,0,1,.26,1.94,13.88,13.88,0,0,0,4.27,8.08A18,18,0,0,1,174.22,374.83Z" style="fill:#894536"></path><path d="M159.55,359.33c.14,0-1,5.54-2.49,12.3s-2.85,12.22-3,12.19,1-5.54,2.49-12.3S159.41,359.3,159.55,359.33Z" style="fill:#894536"></path><path d="M153,411.83l5.87,11-32.43,17.31c-1.46-3.2,14.21-21.06,14.21-21.06h0s4.4,0,7.08-2.09a19.84,19.84,0,0,0,4.16-4.52Z" style="fill:#455a64"></path><path d="M151.51,417.47a1.5,1.5,0,0,1,1.72,1,1.43,1.43,0,0,1-1,1.71,1.59,1.59,0,0,1-1.82-1.09,1.5,1.5,0,0,1,1.24-1.67" style="fill:#e0e0e0"></path><g style="opacity:0.6000000000000001"><path d="M158.82,422.83l-1.49-2.59-30.54,17.57s-1.11,1.4-.4,2.33Z" style="fill:#fff"></path></g><path d="M137.77,421.88c.09.15.92-.2,2-.1s1.82.53,1.93.39-.61-.93-1.88-1S137.66,421.75,137.77,421.88Z" style="fill:#263238"></path><path d="M135.12,425.1c0,.17.87.08,1.77.46s1.43,1,1.58.92-.22-1-1.34-1.5S135,425,135.12,425.1Z" style="fill:#263238"></path><path d="M135.36,430.2c.16,0,0-.95-.91-1.6s-1.79-.6-1.79-.43.71.38,1.41.93S135.19,430.27,135.36,430.2Z" style="fill:#263238"></path><path d="M134.46,174.33c-5.12,5.86-7.37,13.72-8.34,21.45s-.82,15.57-1.89,23.29c-.56,4-1.46,8.06-1.14,12.12s2.12,8.26,5.67,10.25c2.1,1.16,5,1.31,6.65-.46,1.14-1.25,1.33-3.08,1.46-4.77l5-63.74" style="fill:#263238"></path><path d="M174,204.81c1.71-5.14,4.25-14.05,3.32-19.38a22,22,0,0,0-8-13.74c-5.91-4.51-14-5.1-21.32-4-5,.78-10.19,2.43-13.63,6.17a19.21,19.21,0,0,0-4.29,8.67,57.23,57.23,0,0,0-1.15,9.7c-.12,2,.39,6.1,1.49,8" style="fill:#455a64"></path><path d="M130.94,199s-2.13-18.3,9.75-25.35c11.63-6.9,23.76-4.29,28.07,1.26,8.31,10.71,6.24,18.19,6.24,18.19l-41.55,9.72Z" style="fill:#263238"></path><path d="M175,192.69v-.31a19.29,19.29,0,0,0-19.28-19.18c-.51,0-1,0-1.57.05a21.92,21.92,0,0,0-2.48.25,19.19,19.19,0,0,0-16,18.82c-.1,7.57-.17,17.64.18,20.63a40.45,40.45,0,0,1,.43,6.76l0,11.6a12.75,12.75,0,0,0,12.12,12.77h0a12.77,12.77,0,0,0,13.4-12.4l.16-6c7.89-.82,11.72-8.31,12.47-17.38C174.81,203.5,175,203.13,175,192.69Z" style="fill:#aa6550"></path><path d="M136,198.84c-.21-.09-8.39-2.79-8.41,5.65s8.47,6.71,8.48,6.47S136,198.84,136,198.84Z" style="fill:#aa6550"></path><path d="M133.52,207.76s-.15.1-.4.22a1.5,1.5,0,0,1-1.1,0c-.89-.33-1.64-1.75-1.67-3.27a4.86,4.86,0,0,1,.41-2.1,1.7,1.7,0,0,1,1.11-1.13.76.76,0,0,1,.87.41c.11.23,0,.4.1.41s.18-.14.11-.48a.89.89,0,0,0-.33-.53,1.1,1.1,0,0,0-.81-.22,2.06,2.06,0,0,0-1.54,1.31,5.05,5.05,0,0,0-.51,2.35c.05,1.7.92,3.29,2.14,3.64a1.55,1.55,0,0,0,1.34-.22C133.5,208,133.55,207.78,133.52,207.76Z" style="fill:#894536"></path><path d="M171.26,195.47c-.23.23-1.59-.84-3.57-.9s-3.45.87-3.66.63.15-.54.79-1a5.08,5.08,0,0,1,3-.8,4.82,4.82,0,0,1,2.82,1C171.19,194.93,171.38,195.37,171.26,195.47Z" style="fill:#263238"></path><path d="M152.8,195.72c-.24.23-1.59-.84-3.57-.9s-3.45.88-3.66.63.14-.54.79-1a5.14,5.14,0,0,1,2.94-.8,4.88,4.88,0,0,1,2.83,1C152.72,195.18,152.92,195.62,152.8,195.72Z" style="fill:#263238"></path><path d="M152.58,189.56c-.18.5-1.83.47-3.67.88s-3.29,1.06-3.72.69c-.2-.19-.05-.65.5-1.17a5.77,5.77,0,0,1,2.7-1.32,6.45,6.45,0,0,1,3.11.09C152.27,189,152.65,189.32,152.58,189.56Z" style="fill:#263238"></path><path d="M164.18,188.57c.53-.5,2.46-.56,4.32-.13s2.95,1.19,2.42,1.7-2.46.56-4.32.13S163.66,189.08,164.18,188.57Z" style="fill:#263238"></path><path d="M161.93,225.71s-10.11-.1-12.45-1.91c0,0,1.66,4.94,12.38,4.7Z" style="fill:#894536"></path><path d="M166.71,199.6a1.69,1.69,0,0,0,1.44,1.87,1.63,1.63,0,0,0,1.9-1.33,1.69,1.69,0,0,0-1.44-1.87A1.61,1.61,0,0,0,166.71,199.6Z" style="fill:#263238"></path><path d="M148.86,199.6a1.7,1.7,0,0,0,1.44,1.87,1.63,1.63,0,0,0,1.9-1.33,1.68,1.68,0,0,0-1.44-1.87A1.62,1.62,0,0,0,148.86,199.6Z" style="fill:#263238"></path><path d="M158.12,206.51c0-.12.6,0,1.44-.12a3.72,3.72,0,0,0,.67-.15,2.34,2.34,0,0,0,.66-.28c.07-.06.06-.08.06-.1a.66.66,0,0,0-.08-.27c-.13-.3-.27-.61-.4-.93-1.07-2.56-1.77-4.7-1.56-4.79s1.25,1.91,2.32,4.47l.38.94a1.45,1.45,0,0,1,.13.66.92.92,0,0,1-.42.65,2.65,2.65,0,0,1-.49.21,4,4,0,0,1-.44.11,4.64,4.64,0,0,1-.8.07C158.61,207,158.08,206.6,158.12,206.51Z" style="fill:#263238"></path><path d="M169.41,173.86c-4.68-3.59-12.92-5.31-18.67-4s-11.2,7.19-13.65,12.55c-2.59,5.69-2.28,12.28-1.12,18.42.19,1,.56,2.21,1.56,2.5a2,2,0,0,0,2-.74,5.8,5.8,0,0,0,.94-2c.92-2.89,1.83-5.78,2.75-8.66a8.42,8.42,0,0,1,2.09-3.93,11,11,0,0,1,2.21-1.32,16.92,16.92,0,0,0,8.76-13,11.08,11.08,0,0,0,6,8.18c1.89.91,4.08,1.31,5.61,2.73a17.71,17.71,0,0,1,4.41,6.74,64.17,64.17,0,0,1,2.71,9.72c.22-2.27,1-7.44,1.22-9.72C176.2,191.36,177.56,180.13,169.41,173.86Z" style="fill:#263238"></path><path d="M141.91,205.88l32.75-.38s.32,18.77-13.28,20.26c-14.6,1.61-21.53-8.81-21.53-8.81Z" style="fill:#455a64"></path><path d="M141.91,205.88a22.29,22.29,0,0,1-3.34-3.41,22.52,22.52,0,0,1-3-3.75,21.7,21.7,0,0,1,3.35,3.4A21.52,21.52,0,0,1,141.91,205.88Z" style="fill:#455a64"></path><path d="M141.81,218.4a22.83,22.83,0,0,1-3.34-3.41,22.52,22.52,0,0,1-3-3.75,21.52,21.52,0,0,1,3.35,3.41A21.26,21.26,0,0,1,141.81,218.4Z" style="fill:#455a64"></path><path d="M159.23,219.73a43.47,43.47,0,0,0,5.64-3.51,41.74,41.74,0,0,0,4.64-4.74,5.5,5.5,0,0,1-1,1.71,18.9,18.9,0,0,1-3.32,3.44,18.53,18.53,0,0,1-4.08,2.49A5.94,5.94,0,0,1,159.23,219.73Z" style="fill:#263238"></path><path d="M133,228.23l3.29-.91s-.48,17.27,13.22,16.26c14.82-1.09,12.94-17.42,12.94-17.42h3l11.15,39.33,4.52,38.14H121.74l-.54-67.09Z" style="fill:#16A3B2"></path><path d="M164,257.77a5,5,0,0,1-.32,1.18c-.12.38-.27.83-.49,1.35s-.44,1.11-.76,1.74a31.39,31.39,0,0,1-2.48,4.28,32.68,32.68,0,0,1-8.55,8.52,31.73,31.73,0,0,1-4.29,2.46c-.63.33-1.23.54-1.74.76a12,12,0,0,1-1.35.48,5,5,0,0,1-1.18.32c0-.09,1.62-.62,4.11-1.89a35.92,35.92,0,0,0,4.18-2.52,35.27,35.27,0,0,0,8.43-8.4,35.5,35.5,0,0,0,2.54-4.18C163.35,259.39,163.89,257.74,164,257.77Z" style="fill:#263238"></path><g style="opacity:0.2"><path d="M144.79,278.26A3.24,3.24,0,0,1,146,275a20.44,20.44,0,0,1,3.14-1.92c4.64-2.81,6.7-8.41,10.38-12.39.6-.65,1.47-1.31,2.29-1a1.55,1.55,0,0,1,.81,1.57,4.09,4.09,0,0,1-.67,1.75A35.49,35.49,0,0,1,144.76,278"></path></g><path d="M136.26,227.32c-.67.22-12.44.65-18.49,6.58-3.12,3.07-5.43,10.5-6.75,14.91s-9.61,36.66-3.27,42c2.79,2.35,25.15,6.85,25.15,6.85l6.95-15.92-13.52-8.83,2.42-12.22Z" style="fill:#16A3B2"></path><circle cx="121.67" cy="237.9" r="2.24" style="fill:#fff"></circle><circle cx="120.29" cy="260.43" r="2.24" style="fill:#fff"></circle><path d="M113.25,275.7a2.25,2.25,0,1,1-2.25-2.25A2.24,2.24,0,0,1,113.25,275.7Z" style="fill:#fff"></path><path d="M129.34,284.87a2.25,2.25,0,1,1-2.24-2.25A2.24,2.24,0,0,1,129.34,284.87Z" style="fill:#fff"></path><path d="M127.93,250.22a2.24,2.24,0,0,0,1.8,2.6l.81-4.41A2.25,2.25,0,0,0,127.93,250.22Z" style="fill:#fff"></path><path d="M124.08,270.74a2.25,2.25,0,0,0,1.81,2.61l.8-4.42A2.25,2.25,0,0,0,124.08,270.74Z" style="fill:#fff"></path><path d="M112.34,252.49a2.24,2.24,0,0,0-1.58-2.75l-1.17,4.33A2.25,2.25,0,0,0,112.34,252.49Z" style="fill:#fff"></path><path d="M114.29,290.94a2.24,2.24,0,0,0-2.77,1.54q2.19.69,4.44,1.29A2.37,2.37,0,0,0,114.29,290.94Z" style="fill:#fff"></path><path d="M132.9,297.68a8.9,8.9,0,0,1,.44-1.19l1.36-3.28,4.94-11.54.08.29-11.19-7.44L126,272.84l-.14-.09,0-.17c1.44-7.64,2.71-14.44,3.65-19.41.47-2.4.86-4.36,1.14-5.78l.33-1.56a3.6,3.6,0,0,1,.15-.53,2.08,2.08,0,0,1-.05.55c-.06.41-.14.93-.24,1.57-.24,1.43-.58,3.4-1,5.81l-3.48,19.44-.11-.26,2.51,1.68L140,281.57l.17.11-.08.18L135,293.32c-.62,1.34-1.11,2.43-1.48,3.23A6.61,6.61,0,0,1,132.9,297.68Z" style="fill:#263238"></path><circle cx="138.64" cy="255.07" r="2.24" style="fill:#fff"></circle><path d="M159.18,247.74a2.25,2.25,0,1,1-2.25-2.25A2.24,2.24,0,0,1,159.18,247.74Z" style="fill:#fff"></path><path d="M168.47,267.66a2.25,2.25,0,1,1-2.24-2.25A2.24,2.24,0,0,1,168.47,267.66Z" style="fill:#fff"></path><path d="M137.76,239.6a2.25,2.25,0,1,1-2.24-2.24A2.24,2.24,0,0,1,137.76,239.6Z" style="fill:#fff"></path><circle cx="148.88" cy="281.06" r="2.24" style="fill:#fff"></circle><path d="M154.91,262.15a2.25,2.25,0,1,1-2.25-2.25A2.24,2.24,0,0,1,154.91,262.15Z" style="fill:#fff"></path><path d="M137.76,270.72a2.25,2.25,0,1,1-2.24-2.24A2.24,2.24,0,0,1,137.76,270.72Z" style="fill:#fff"></path><path d="M171.91,270.43a2.24,2.24,0,0,0,2.74,1.6l-1.13-4.34A2.25,2.25,0,0,0,171.91,270.43Z" style="fill:#fff"></path><path d="M185.48,237.54c-3.08-11.9-19.61-11.38-19.61-11.38l5.9,31.17L175,273.92l-14.67,9.42,1.32,12.13,30.71-.49h0a20.87,20.87,0,0,0,4-14.78C194.67,265.85,187.92,246.93,185.48,237.54Z" style="fill:#16A3B2"></path><g style="opacity:0.2"><path d="M161.1,235.81a16.51,16.51,0,0,0,8.49,21.82,1.23,1.23,0,0,0,1,.12c.52-.23.51-1,.21-1.47a16.58,16.58,0,0,1-1-1.34c-.58-1.16.36-2.57,1.51-3.16s2.5-.68,3.71-1.17a7.32,7.32,0,0,0,4.18-6,12,12,0,0,0-1.83-7.29,35.86,35.86,0,0,0-4.76-6"></path></g><path d="M174.66,205.5c3.17,5.7-2.44,13.31.49,19.14.83,1.66,2.35,3.11,2.34,5s-1.5,3.41-1.25,5.19c.19,1.38,1.34,2.38,2.08,3.55a7.67,7.67,0,0,1-.16,7.78A9.35,9.35,0,0,1,161.44,245c-1.2-2.94-.32-6.2-.18-9.37s.6-7.1.67-9.89c0,0,8.9-.94,11.37-11.14a45,45,0,0,0,1.15-6.81C174.64,206,174.66,205.5,174.66,205.5Z" style="fill:#263238"></path><path d="M188,273a2.25,2.25,0,1,1-2.24-2.24A2.24,2.24,0,0,1,188,273Z" style="fill:#fff"></path><circle cx="186.31" cy="287.74" r="2.24" style="fill:#fff"></circle><path d="M182.86,252.82a2.24,2.24,0,1,1-2.24-2.24A2.24,2.24,0,0,1,182.86,252.82Z" style="fill:#fff"></path><path d="M174.08,283.58a2.24,2.24,0,1,1-2.24-2.24A2.24,2.24,0,0,1,174.08,283.58Z" style="fill:#fff"></path><path d="M190.13,261.58a2.24,2.24,0,0,0,2.73,1.6l-1.13-4.34A2.24,2.24,0,0,0,190.13,261.58Z" style="fill:#fff"></path><path d="M184,240.72a2.26,2.26,0,0,0,2.78,1.55L185.59,238A2.23,2.23,0,0,0,184,240.72Z" style="fill:#fff"></path><path d="M174.44,261.83a2.24,2.24,0,0,0-2.78-1.53l1.25,4.31A2.25,2.25,0,0,0,174.44,261.83Z" style="fill:#fff"></path><path d="M169.25,251.65a7.32,7.32,0,0,1,.49,1.4c.29,1,.67,2.32,1.13,3.88.93,3.29,2.19,7.83,3.54,12.85.36,1.34.71,2.63,1,3.88l.05.17-.15.1c-3.51,2.4-6.58,4.47-8.79,5.93l-2.61,1.7a4.87,4.87,0,0,1-1,.56,5.78,5.78,0,0,1,.88-.71l2.52-1.82c2.16-1.54,5.2-3.66,8.69-6.07l-.1.27c-.34-1.24-.69-2.54-1.05-3.87-1.36-5-2.55-9.58-3.4-12.89l-1-3.92A8.64,8.64,0,0,1,169.25,251.65Z" style="fill:#263238"></path><path d="M147.92,271.58c5.13,6.3,20.57,25.54,20.57,25.54l4.6,1.43-1.21-4.27-20.2-25.71a2.41,2.41,0,0,0-3.3-.46h0A2.41,2.41,0,0,0,147.92,271.58Z" style="fill:#263238"></path><path d="M139.85,282.08l9.29,3.16,10-3.37,8.1,1.46,4.49,7.57a1.87,1.87,0,0,1-2.36.8,4.47,4.47,0,0,1-1.9-2s1.18,4.71.82,5.52a1.69,1.69,0,0,1-2.72.57s.45,1.79-.63,2.24-2.27-1.27-2.27-1.27a2.36,2.36,0,0,1-1.68,1.35c-1.21.19-4.36-1.8-4.36-1.8l-4.56.31a5.05,5.05,0,0,1-2.67-.56l-1.75-.93-13.87.76Z" style="fill:#aa6550"></path><path d="M159.24,285.28a5.55,5.55,0,0,1,1.65-.1l1.77,0a5.88,5.88,0,0,1,2.21.41,4.69,4.69,0,0,1,2.51,3.14,7.34,7.34,0,0,1,.32,1.61c-.07,0-.35-.55-.68-1.5a4.41,4.41,0,0,0-.79-1.49,4.32,4.32,0,0,0-1.57-1.28,5.83,5.83,0,0,0-2-.41l-1.76-.15A5.37,5.37,0,0,1,159.24,285.28Z" style="fill:#894536"></path><path d="M159.21,289c0-.05.54-.42,1.58-.36a4.57,4.57,0,0,1,3.32,2,8,8,0,0,1,1.34,3.63,4,4,0,0,1,.05,1.59,5.87,5.87,0,0,1-.41-1.52,9.54,9.54,0,0,0-1.4-3.4,4.57,4.57,0,0,0-2.95-1.92A9.86,9.86,0,0,0,159.21,289Z" style="fill:#894536"></path><path d="M157.31,292.28c0-.06.44-.13,1.15-.08a4.09,4.09,0,0,1,2.62,1.06,5.26,5.26,0,0,1,1.29,2.5c.16.69.19,1.12.12,1.14s-.23-.39-.48-1a6.11,6.11,0,0,0-1.3-2.24,4.43,4.43,0,0,0-2.3-1.07C157.74,292.43,157.3,292.36,157.31,292.28Z" style="fill:#894536"></path><path d="M46.65,443.78h0a2.66,2.66,0,0,0,2.66-2.66V306.94H44V441.12A2.66,2.66,0,0,0,46.65,443.78Z" style="fill:#e0e0e0"></path><path d="M248.67,443.78h0a2.66,2.66,0,0,0,2.66-2.66V306.94H246V441.12A2.66,2.66,0,0,0,248.67,443.78Z" style="fill:#e0e0e0"></path><rect x="37.41" y="295.06" width="219.69" height="12.55" style="fill:#455a64"></rect><rect x="43.63" y="311.66" width="209.04" height="39.63" style="fill:#455a64"></rect><path d="M96.6,312a8,8,0,0,1-.83,2.4,12.86,12.86,0,0,1-4.73,5,27.58,27.58,0,0,1-9.7,3.29c-3.79.71-8.07,1.2-12.14,3.06a26.65,26.65,0,0,0-9.88,7.52c-1.22,1.5-2.26,3-3.31,4.38a22.83,22.83,0,0,1-3.24,3.53,10.82,10.82,0,0,1-6.29,2.71,7.83,7.83,0,0,1-1.88-.18c-.41-.12-.63-.2-.63-.2l.64.16a8.18,8.18,0,0,0,1.86.14,10.83,10.83,0,0,0,6.2-2.74,22.59,22.59,0,0,0,3.2-3.52c1.05-1.36,2.08-2.89,3.3-4.4a26.65,26.65,0,0,1,9.94-7.59c4.11-1.87,8.41-2.36,12.19-3.06A27.69,27.69,0,0,0,91,319.23a13,13,0,0,0,4.74-4.9,10.41,10.41,0,0,0,.71-1.74C96.53,312.18,96.6,312,96.6,312Z" style="fill:#263238"></path><path d="M109.85,350.89s-.11-.22-.29-.63-.47-1-.87-1.79a24.39,24.39,0,0,0-4.43-5.76,27.14,27.14,0,0,0-9.1-5.73,30.4,30.4,0,0,0-13-1.74,37.23,37.23,0,0,0-12.73,3.41,47.34,47.34,0,0,0-9.19,5.7,60.54,60.54,0,0,0-5.43,4.87q-.91.93-1.38,1.44l-.48.5s.6-.74,1.8-2a57,57,0,0,1,5.4-4.94,46.09,46.09,0,0,1,9.2-5.75A37.07,37.07,0,0,1,82.13,335a30.16,30.16,0,0,1,13.1,1.77,27,27,0,0,1,9.13,5.79,23.9,23.9,0,0,1,4.4,5.83c.39.78.68,1.38.84,1.81S109.85,350.89,109.85,350.89Z" style="fill:#263238"></path><path d="M124.14,334.43l-.31-.39a6.65,6.65,0,0,0-1.06-1,14.72,14.72,0,0,0-2-1.27,21.8,21.8,0,0,1-2.8-1.67,6.13,6.13,0,0,1-2.3-3.31,3.14,3.14,0,0,1,.36-2.28,3.54,3.54,0,0,1,2-1.46,4.82,4.82,0,0,1,2.69,0,10.74,10.74,0,0,1,2.65,1.13,37.28,37.28,0,0,1,5.17,3.52,39,39,0,0,1,4.93,4.8,31,31,0,0,1,2.23,2.91A7.34,7.34,0,0,1,137,339a3.79,3.79,0,0,1-.44,1.92,4.19,4.19,0,0,1-1.4,1.44,9,9,0,0,1-3.88,1.2,24.7,24.7,0,0,1-8.44-.54,25.87,25.87,0,0,1-14.87-9.9c-.43-.66-.89-1.32-1.28-2a16,16,0,0,1-1-2.18,9.72,9.72,0,0,1-.64-4.81,6.5,6.5,0,0,1,2.5-4.18,10.87,10.87,0,0,1,4.57-2,21.49,21.49,0,0,1,9.84.62,51.05,51.05,0,0,1,8.91,3.64c5.59,2.87,10.91,6,16.6,7.21a21.51,21.51,0,0,0,8.37.21c2.7-.45,5.29-1.16,7.87-1.36a15.59,15.59,0,0,1,7.33,1.13,23.6,23.6,0,0,1,5.88,3.57,74.49,74.49,0,0,1,8.34,8.38,53.16,53.16,0,0,0,6.43,6.17,23.06,23.06,0,0,0,4.81,2.9,14.19,14.19,0,0,0,1.36.54l.47.17-.47-.15c-.32-.11-.79-.26-1.38-.52a22.42,22.42,0,0,1-4.84-2.88,52.07,52.07,0,0,1-6.47-6.15,75.28,75.28,0,0,0-8.34-8.35A23.78,23.78,0,0,0,171,329.5a15.44,15.44,0,0,0-7.26-1.11c-2.56.21-5.14.92-7.85,1.37a21.72,21.72,0,0,1-8.45-.2c-5.72-1.22-11.06-4.35-16.64-7.22a50.54,50.54,0,0,0-8.88-3.62,21.35,21.35,0,0,0-9.74-.61,10.62,10.62,0,0,0-4.48,1.95,6.24,6.24,0,0,0-2.42,4.05,9.41,9.41,0,0,0,.62,4.7,16.31,16.31,0,0,0,1,2.16c.39.69.84,1.33,1.27,2a25.69,25.69,0,0,0,14.75,9.84,24.8,24.8,0,0,0,8.37.54,9,9,0,0,0,3.8-1.17,3.9,3.9,0,0,0,1.34-1.37,3.56,3.56,0,0,0,.43-1.83,7.17,7.17,0,0,0-1.29-3.48,29,29,0,0,0-2.21-2.89,38,38,0,0,0-4.9-4.79,38.68,38.68,0,0,0-5.14-3.53c-1.68-1-3.57-1.65-5.25-1.12a3.43,3.43,0,0,0-2,1.41,3,3,0,0,0-.35,2.2A6,6,0,0,0,118,330a23.64,23.64,0,0,0,2.78,1.68,13.91,13.91,0,0,1,2,1.28,6.4,6.4,0,0,1,1,1C124.05,334.29,124.14,334.43,124.14,334.43Z" style="fill:#263238"></path><path d="M208.84,351.08l-.84,0a17.17,17.17,0,0,1-2.4-.15,16.36,16.36,0,0,1-8-3.47,119,119,0,0,1-20.18-21,26.61,26.61,0,0,0-5.85-5.81,11.66,11.66,0,0,0-3.56-1.62,12.42,12.42,0,0,0-3.73-.33c-2.45.13-4.77.62-7,.63a18.12,18.12,0,0,1-6-1.06,30.84,30.84,0,0,1-7.76-4.22c-1.69-1.23-2.56-2-2.56-2l.67.51c.44.33,1.08.82,1.94,1.42a31.71,31.71,0,0,0,7.75,4.14,17.74,17.74,0,0,0,6,1c2.19,0,4.49-.5,7-.64a12.54,12.54,0,0,1,3.79.33,11.8,11.8,0,0,1,3.62,1.64,26.59,26.59,0,0,1,5.9,5.85,120.53,120.53,0,0,0,20.11,21A16.5,16.5,0,0,0,208,351.07Z" style="fill:#263238"></path><path d="M252.68,319.88l-1-.17a15.47,15.47,0,0,0-3-.12,19.52,19.52,0,0,0-10.1,3.73,27.06,27.06,0,0,0-5.43,5.18,48.6,48.6,0,0,0-4.74,7.23c-.74,1.33-1.46,2.72-2.18,4.14a34.83,34.83,0,0,1-2.4,4.27,10.35,10.35,0,0,1-3.74,3.42A10.85,10.85,0,0,1,215,348.7a17.69,17.69,0,0,1-9.6-3.43,50,50,0,0,1-7.36-6.15,55,55,0,0,1-9.56-13.07,53.89,53.89,0,0,1-4.06-10.14c-.36-1.25-.58-2.22-.72-2.89s-.22-1-.22-1,.1.34.26,1,.39,1.64.76,2.87A54.66,54.66,0,0,0,198.2,339a50,50,0,0,0,7.33,6.12,17.53,17.53,0,0,0,9.49,3.4,10.74,10.74,0,0,0,5-1.12,10.21,10.21,0,0,0,3.67-3.35,36.59,36.59,0,0,0,2.4-4.25c.72-1.42,1.44-2.81,2.18-4.15a48.57,48.57,0,0,1,4.78-7.24,27.13,27.13,0,0,1,5.48-5.2,19.45,19.45,0,0,1,10.18-3.68,15,15,0,0,1,3,.16Z" style="fill:#263238"></path><path d="M252.67,330.3s-.08.07-.24.19-.41.3-.71.53a15.05,15.05,0,0,0-2.28,2.31,28.07,28.07,0,0,0-2.62,4c-.87,1.6-1.72,3.41-2.75,5.24a20.89,20.89,0,0,1-3.51,4.79,14.86,14.86,0,0,1-4,2.76,12.32,12.32,0,0,1-3.1,1,7.39,7.39,0,0,1-1.19.11s.42,0,1.17-.19a12.8,12.8,0,0,0,3.06-1.07,15.56,15.56,0,0,0,3.91-2.77,20.83,20.83,0,0,0,3.45-4.75c1-1.83,1.89-3.64,2.78-5.23a25.48,25.48,0,0,1,2.67-4,13.7,13.7,0,0,1,2.34-2.28A8.67,8.67,0,0,1,252.67,330.3Z" style="fill:#263238"></path><path d="M220.37,312.18a3.12,3.12,0,0,0-1.57,1.71,5.14,5.14,0,0,0-.3,2.72c.13,1.08.52,2.27.82,3.62a25.15,25.15,0,0,1,.19,9.64,10.9,10.9,0,0,1-2,5.31,3.43,3.43,0,0,1-2.75,1.22,5.13,5.13,0,0,1-2.89-1.18,13.14,13.14,0,0,1-2.2-2.21c-.65-.8-1.26-1.6-1.82-2.42a35.59,35.59,0,0,1-2.9-4.93,7.11,7.11,0,0,1-.68-2.59,3.26,3.26,0,0,1,.82-2.38,3.68,3.68,0,0,1,4.24-.72,4.83,4.83,0,0,1,2.39,2.79,6.25,6.25,0,0,1,.29,2.78,8.5,8.5,0,0,1-.39,1.74,6.07,6.07,0,0,1-.22.57l.18-.59a9.55,9.55,0,0,0,.35-1.72,6.62,6.62,0,0,0-.31-2.75,4.8,4.8,0,0,0-2.35-2.69,3.54,3.54,0,0,0-4.05.71,3.14,3.14,0,0,0-.77,2.25,7,7,0,0,0,.67,2.52,36.15,36.15,0,0,0,2.89,4.89c.57.81,1.17,1.62,1.82,2.41a12.79,12.79,0,0,0,2.17,2.18,5.06,5.06,0,0,0,2.77,1.14,3.31,3.31,0,0,0,2.59-1.15c1.29-1.49,1.65-3.46,2-5.22a25.46,25.46,0,0,0-.16-9.57c-.28-1.34-.67-2.54-.79-3.63a5.14,5.14,0,0,1,.35-2.78,3.32,3.32,0,0,1,1.09-1.39A1.91,1.91,0,0,1,220.37,312.18Z" style="fill:#263238"></path><path d="M61.43,312a27.6,27.6,0,0,1-.77,4.71,36.73,36.73,0,0,1-4.38,10.63,35.81,35.81,0,0,1-3.77,5.11,12.86,12.86,0,0,1-3.93,3.36,5,5,0,0,1-3.44.41,3,3,0,0,1-1.15-.54,5.29,5.29,0,0,0,1.17.47,5.1,5.1,0,0,0,3.36-.47,13.1,13.1,0,0,0,3.85-3.35,37.57,37.57,0,0,0,3.73-5.1,38.29,38.29,0,0,0,4.42-10.55c.36-1.43.57-2.6.7-3.42.05-.35.1-.66.14-.93A1.77,1.77,0,0,1,61.43,312Z" style="fill:#263238"></path><path d="M100.57,295.27H39.75a17.74,17.74,0,0,1,0-10.56h60.82A13.76,13.76,0,0,1,100.57,295.27Z" style="fill:#16A3B2"></path><path d="M57.78,288l-.67,3.31h-.23l.56-2.82-1.83,2.38h-.12l-.94-2.41L54,291.33h-.24l.66-3.31h.2l1,2.56,2-2.56Z" style="fill:#f5f5f5"></path><path d="M60.88,288.86l-.49,2.47h-.23l.1-.48a1.28,1.28,0,0,1-1,.5,1,1,0,0,1-1.07-1,1.4,1.4,0,0,1,1.4-1.48.9.9,0,0,1,1,.64l.13-.62Zm-.45,1a.79.79,0,0,0-.88-.83,1.17,1.17,0,0,0-1.16,1.26.78.78,0,0,0,.88.83A1.18,1.18,0,0,0,60.43,289.88Z" style="fill:#f5f5f5"></path><path d="M61.82,290.62a.52.52,0,0,0,0,.17c0,.23.12.36.38.36a.67.67,0,0,0,.4-.14l.07.17a.86.86,0,0,1-.53.17.49.49,0,0,1-.56-.53,1.28,1.28,0,0,1,0-.19l.32-1.57h-.46l0-.2h.46l.11-.54h.23l-.1.54H63l0,.2h-.78Z" style="fill:#f5f5f5"></path><path d="M65.8,289.63a1.24,1.24,0,0,1,0,.27l-.29,1.43h-.23l.28-1.43a1,1,0,0,0,0-.24c0-.38-.23-.61-.69-.61a1.06,1.06,0,0,0-1.09.94l-.27,1.34h-.23l.7-3.51h.23l-.29,1.5a1.18,1.18,0,0,1,1-.48C65.49,288.84,65.8,289.14,65.8,289.63Z" style="fill:#f5f5f5"></path><path d="M66.66,290.15c0,.05,0,.1,0,.15,0,.54.31.84.91.84a1.18,1.18,0,0,0,.85-.33l.11.16a1.32,1.32,0,0,1-1,.38,1,1,0,0,1-1.13-1,1.38,1.38,0,0,1,1.35-1.47,1,1,0,0,1,1,1,2.19,2.19,0,0,1,0,.28Zm0-.19h1.9a.49.49,0,0,0,0-.12.76.76,0,0,0-.84-.8A1.09,1.09,0,0,0,66.69,290Z" style="fill:#f5f5f5"></path><path d="M73.66,289.62c0,.09,0,.18,0,.28l-.29,1.43h-.24l.29-1.43a1,1,0,0,0,0-.24c0-.38-.22-.61-.67-.61a1,1,0,0,0-1,.88l-.29,1.4H71.2l.29-1.43a1,1,0,0,0,0-.24c0-.38-.22-.61-.67-.61a1,1,0,0,0-1,.94l-.27,1.34h-.23l.49-2.47H70l-.09.46a1.14,1.14,0,0,1,1-.48.76.76,0,0,1,.83.55,1.24,1.24,0,0,1,1.07-.55C73.37,288.84,73.66,289.14,73.66,289.62Z" style="fill:#f5f5f5"></path><path d="M77,288.86l-.49,2.47H76.3l.09-.48a1.27,1.27,0,0,1-1,.5,1,1,0,0,1-1.06-1,1.39,1.39,0,0,1,1.39-1.48.91.91,0,0,1,1,.64l.12-.62Zm-.46,1a.78.78,0,0,0-.88-.83,1.18,1.18,0,0,0-1.16,1.26.79.79,0,0,0,.88.83A1.17,1.17,0,0,0,76.56,289.88Z" style="fill:#f5f5f5"></path><path d="M78,290.62a1.11,1.11,0,0,0,0,.17c0,.23.12.36.38.36a.63.63,0,0,0,.4-.14l.07.17a.82.82,0,0,1-.53.17.5.5,0,0,1-.56-.53.65.65,0,0,1,0-.19l.32-1.57h-.46l0-.2h.46l.11-.54h.24l-.11.54h.79l0,.2h-.79Z" style="fill:#f5f5f5"></path><path d="M79.89,288.86h.24l-.49,2.47H79.4Zm.08-.78a.2.2,0,0,1,.21-.2.18.18,0,0,1,.19.17.21.21,0,0,1-.22.21A.18.18,0,0,1,80,288.08Z" style="fill:#f5f5f5"></path><path d="M80.6,290.32A1.4,1.4,0,0,1,82,288.84a1,1,0,0,1,.94.47l-.2.11a.82.82,0,0,0-.76-.37,1.17,1.17,0,0,0-1.16,1.26.79.79,0,0,0,.89.83,1.05,1.05,0,0,0,.82-.36l.16.13a1.24,1.24,0,0,1-1,.44A1,1,0,0,1,80.6,290.32Z" style="fill:#f5f5f5"></path><path d="M85.91,288.86l-.49,2.47h-.23l.1-.48a1.28,1.28,0,0,1-1,.5,1,1,0,0,1-1.07-1,1.4,1.4,0,0,1,1.4-1.48.91.91,0,0,1,1,.64l.13-.62Zm-.46,1a.78.78,0,0,0-.87-.83,1.17,1.17,0,0,0-1.16,1.26.78.78,0,0,0,.87.83A1.17,1.17,0,0,0,85.45,289.88Z" style="fill:#f5f5f5"></path><path d="M87.11,287.82h.24l-.7,3.51h-.24Z" style="fill:#f5f5f5"></path><path d="M42.3,289l3.31.66v.24l-3.09-.62v.81l-.22,0Z" style="fill:#f5f5f5"></path><path d="M50.1,284.71a52.82,52.82,0,0,1-1.66,5.34c-1,2.92-1.85,5.27-1.92,5.25A52.82,52.82,0,0,1,48.18,290C49.17,287,50,284.69,50.1,284.71Z" style="fill:#fff"></path><path d="M52.58,284.71c.07,0-.67,2.42-1.66,5.34s-1.85,5.27-1.92,5.25A49.89,49.89,0,0,1,50.66,290,54.49,54.49,0,0,1,52.58,284.71Z" style="fill:#fff"></path><path d="M93.21,284.71c.07,0-.67,2.42-1.66,5.34a54.05,54.05,0,0,1-1.93,5.25c-.07,0,.67-2.42,1.66-5.34A52.85,52.85,0,0,1,93.21,284.71Z" style="fill:#fff"></path><path d="M95.68,284.71A51.11,51.11,0,0,1,94,290.05c-1,2.92-1.86,5.27-1.93,5.25s.67-2.42,1.66-5.34S95.61,284.69,95.68,284.71Z" style="fill:#fff"></path><path d="M92,284.82H31.14a9.16,9.16,0,0,1,0-7.52H92A7.26,7.26,0,0,1,92,284.82Z" style="fill:#455a64"></path><path d="M51.6,279.41h.65v2.27h1.4v.52h-2Z" style="fill:#f5f5f5"></path><path d="M55.89,281v1.22h-.58v-.26a.72.72,0,0,1-.65.3c-.51,0-.81-.28-.81-.66s.27-.64.93-.64h.49c0-.26-.16-.42-.49-.42a1,1,0,0,0-.62.2l-.23-.44a1.75,1.75,0,0,1,.93-.26C55.51,280,55.89,280.33,55.89,281Zm-.62.55v-.22h-.43c-.29,0-.38.1-.38.25s.13.26.35.26A.46.46,0,0,0,55.27,281.53Z" style="fill:#f5f5f5"></path><path d="M58.65,281v1.23H58v-1.13c0-.35-.16-.51-.44-.51s-.51.19-.51.58v1.06h-.63v-2.14h.6v.25a1,1,0,0,1,.71-.29A.84.84,0,0,1,58.65,281Z" style="fill:#f5f5f5"></path><path d="M61.45,280.06v1.78A1.05,1.05,0,0,1,60.24,283a1.74,1.74,0,0,1-1.05-.3l.25-.44a1.32,1.32,0,0,0,.76.24c.44,0,.63-.2.63-.59v-.09a.9.9,0,0,1-.68.27,1,1,0,1,1,0-2.08.88.88,0,0,1,.71.31v-.27Zm-.62,1a.52.52,0,0,0-.56-.52.53.53,0,1,0,.56.52Z" style="fill:#f5f5f5"></path><path d="M64.19,280.06v2.14H63.6V282a.91.91,0,0,1-1.58-.68v-1.21h.62v1.12c0,.36.16.52.43.52s.5-.19.5-.58v-1.06Z" style="fill:#f5f5f5"></path><path d="M66.67,281v1.22h-.59v-.26a.7.7,0,0,1-.65.3c-.5,0-.8-.28-.8-.66s.27-.64.92-.64h.5c0-.26-.16-.42-.5-.42a1.07,1.07,0,0,0-.62.2l-.22-.44a1.69,1.69,0,0,1,.92-.26C66.29,280,66.67,280.33,66.67,281Zm-.62.55v-.22h-.43c-.29,0-.38.1-.38.25s.13.26.35.26A.48.48,0,0,0,66.05,281.53Z" style="fill:#f5f5f5"></path><path d="M69.47,280.06v1.78A1.05,1.05,0,0,1,68.26,283a1.74,1.74,0,0,1-1.05-.3l.25-.44a1.31,1.31,0,0,0,.75.24c.44,0,.64-.2.64-.59v-.09a.9.9,0,0,1-.68.27,1,1,0,1,1,0-2.08.89.89,0,0,1,.71.31v-.27Zm-.62,1a.52.52,0,0,0-.56-.52.53.53,0,1,0,0,1A.52.52,0,0,0,68.85,281.06Z" style="fill:#f5f5f5"></path><path d="M72.14,281.31H70.51a.58.58,0,0,0,.62.43.75.75,0,0,0,.54-.21l.33.36a1.25,1.25,0,0,1-2.11-.76A1.1,1.1,0,0,1,71,280a1.07,1.07,0,0,1,1.12,1.12C72.15,281.19,72.14,281.25,72.14,281.31Zm-1.63-.37h1a.53.53,0,0,0-1,0Z" style="fill:#f5f5f5"></path><path d="M35.26,281h2.79v.65H35.77v.55h-.51Z" style="fill:#f5f5f5"></path><polygon points="39.47 277.3 42.35 284.82 46.13 284.82 43.73 277.3 39.47 277.3" style="fill:#263238"></polygon><polygon points="76.81 277.3 79.69 284.82 83.48 284.82 81.07 277.3 76.81 277.3" style="fill:#263238"></polygon></g></svg>